<?xml version="1.0" standalone="no"?>
<!DOCTYPE svg PUBLIC "-//W3C//DTD SVG 1.1//EN" "http://www.w3.org/Graphics/SVG/1.1/DTD/svg11.dtd" >
<svg xmlns="http://www.w3.org/2000/svg" xmlns:xlink="http://www.w3.org/1999/xlink" version="1.1">
<metadata>
Created by FontForge 20170731 at Fri Sep 12 16:04:20 2008
 By Aleksey,,,
Copyright (C) 2005, 2008 Hoefler &#38; Frere-Jones. http://www.typography.com
</metadata>
<defs>
<font id="GothamNarrow-UltraItalic" horiz-adv-x="500" >
  <font-face 
    font-family="Gotham Narrow Ultra"
    font-weight="500"
    font-style="italic"
    font-stretch="condensed"
    units-per-em="1000"
    panose-1="0 0 0 0 0 0 0 0 0 0"
    ascent="800"
    descent="-200"
    x-height="546"
    cap-height="700"
    bbox="-135 -296 1200 1030"
    underline-thickness="50"
    underline-position="-300"
    slope="-14"
    unicode-range="U+0020-FB04"
  />
<missing-glyph 
d="M0 -200v1000h500v-1000h-500zM50 -76l172 376l-172 376v-752zM71 -150h358l-179 390zM250 360l179 390h-358zM450 -76v752l-172 -376z" />
    <glyph glyph-name="f_f" unicode="ff" horiz-adv-x="748" 
d="M-3 0l93 383h-52l40 163h52l2 8q19 79 62 124q53 52 156 52q63 0 125 -18l-34 -136q-27 10 -52 10q-24 0 -36 -9t-17 -31l-1 -5h98l-39 -158h-95l-93 -383h-209zM370 0l93 383h-52l40 163h52l2 8q19 79 62 124q53 52 156 52q63 0 125 -18l-34 -136q-27 10 -52 10
q-24 0 -36 -9t-17 -31l-1 -5h98l-39 -158h-95l-93 -383h-209z" />
    <glyph glyph-name="fi" unicode="fi" horiz-adv-x="647" 
d="M-3 0l93 383h-52l40 163h52l2 8q19 79 62 124q53 52 156 52q63 0 125 -18l-34 -136q-27 10 -52 10q-24 0 -36 -9t-17 -31l-1 -5h98l-39 -158h-95l-93 -383h-209zM339 0l133 546h210l-133 -546h-210zM478 582l36 143h215l-35 -143h-216z" />
    <glyph glyph-name="fl" unicode="fl" horiz-adv-x="647" 
d="M-3 0l93 383h-52l40 163h52l2 8q19 79 62 124q53 52 156 52q63 0 125 -18l-34 -136q-27 10 -52 10q-24 0 -36 -9t-17 -31l-1 -5h98l-39 -158h-95l-93 -383h-209zM339 0l177 725h210l-177 -725h-210z" />
    <glyph glyph-name="f_f_i" unicode="ffi" horiz-adv-x="1021" 
d="M-3 0l93 383h-52l40 163h52l2 8q19 79 62 124q53 52 156 52q63 0 125 -18l-34 -136q-27 10 -52 10q-24 0 -36 -9t-17 -31l-1 -5h98l-39 -158h-95l-93 -383h-209zM370 0l93 383h-52l40 163h52l2 8q19 79 62 124q53 52 156 52q63 0 125 -18l-34 -136q-27 10 -52 10
q-24 0 -36 -9t-17 -31l-1 -5h98l-39 -158h-95l-93 -383h-209zM713 0l133 546h210l-133 -546h-210zM852 582l36 143h215l-35 -143h-216z" />
    <glyph glyph-name="f_f_l" unicode="ffl" horiz-adv-x="1021" 
d="M-3 0l93 383h-52l40 163h52l2 8q19 79 62 124q53 52 156 52q63 0 125 -18l-34 -136q-27 10 -52 10q-24 0 -36 -9t-17 -31l-1 -5h98l-39 -158h-95l-93 -383h-209zM370 0l93 383h-52l40 163h52l2 8q19 79 62 124q53 52 156 52q63 0 125 -18l-34 -136q-27 10 -52 10
q-24 0 -36 -9t-17 -31l-1 -5h98l-39 -158h-95l-93 -383h-209zM713 0l177 725h210l-177 -725h-210z" />
    <glyph glyph-name=".notdef" 
d="M0 -200v1000h500v-1000h-500zM50 -76l172 376l-172 376v-752zM71 -150h358l-179 390zM250 360l179 390h-358zM450 -76v752l-172 -376z" />
    <glyph glyph-name=".null" horiz-adv-x="0" 
 />
    <glyph glyph-name="nonmarkingreturn" horiz-adv-x="333" 
 />
    <glyph glyph-name="space" unicode=" " horiz-adv-x="198" 
 />
    <glyph glyph-name="exclam" unicode="!" horiz-adv-x="291" 
d="M81 222l20 373l27 105h241l-27 -105l-158 -373h-103zM-29 0l44 180h216l-44 -180h-216z" />
    <glyph glyph-name="quotedbl" unicode="&#x22;" horiz-adv-x="494" 
d="M36 326l93 374h214v-6l-200 -368h-107zM284 326l92 374h214v-6l-199 -368h-107z" />
    <glyph glyph-name="numbersign" unicode="#" horiz-adv-x="614" 
d="M25 0l40 126h-71l33 181h95l28 90h-81l34 181h105l38 122h143l-38 -122h93l39 122h143l-38 -122h70l-33 -181h-95l-28 -90h81l-34 -181h-104l-40 -126h-144l41 126h-95l-39 -126h-143zM256 300h108l32 104h-108z" />
    <glyph glyph-name="dollar" unicode="$" horiz-adv-x="584" 
d="M372 763h112l-19 -74q99 -21 170 -76l-100 -154q-33 27 -83 47t-101 22q-32 2 -50.5 -8.5t-18.5 -27.5q0 -16 17 -27.5t67 -33.5l17 -6q92 -37 137.5 -78t45.5 -112q0 -101 -76 -167t-204 -68l-25 -101h-112l28 110q-122 24 -209 94l103 153q110 -80 221 -83q67 0 67 40
q0 17 -20 29.5t-79 31.5q-96 38 -141 81t-45 112q0 100 76.5 165.5t205.5 67.5z" />
    <glyph glyph-name="percent" unicode="%" horiz-adv-x="845" 
d="M63 0l343 379l280 321h133l-343 -379l-281 -321h-132zM218 310q-72 0 -112 44t-40 117q0 51 18 102t53 86q51 51 125 51q72 0 112 -44t40 -117q0 -51 -18 -102t-53 -86q-51 -51 -125 -51zM226 421q18 0 32 14q35 35 35 110q0 53 -39 53q-18 0 -32 -14q-35 -35 -35 -110
q0 -53 39 -53zM620 -10q-72 0 -112 44t-40 117q0 51 18 102t53 86q51 51 125 51q72 0 112 -44t40 -117q0 -51 -18 -102t-53 -86q-51 -51 -125 -51zM628 101q18 0 32 14q35 35 35 110q0 53 -39 53q-18 0 -32 -14q-35 -35 -35 -110q0 -53 39 -53z" />
    <glyph glyph-name="ampersand" unicode="&#x26;" horiz-adv-x="635" 
d="M505 342l129 -74q-36 -72 -86 -131l40 -66l-139 -88l-33 55q-86 -50 -181 -50q-111 0 -174 51t-63 139q0 150 187 227q-30 60 -30 117q0 80 57.5 136t151.5 56q91 0 148 -49.5t57 -126.5q0 -124 -156 -197l43 -74q30 40 49 75zM267 144q30 0 61 17l-72 128
q-55 -36 -55 -89q0 -26 17.5 -41t48.5 -15zM324 513q0 -31 15 -63q67 34 67 81q0 19 -10 30.5t-27 11.5q-19 0 -32 -17t-13 -43z" />
    <glyph glyph-name="quotesingle" unicode="'" horiz-adv-x="252" 
d="M36 326l93 374h219v-6l-201 -368h-111z" />
    <glyph glyph-name="parenleft" unicode="(" horiz-adv-x="405" 
d="M213 -143q-93 71 -141.5 157t-48.5 200q0 221 141 362q98 98 252 136l45 -142q-88 -35 -139 -86q-105 -105 -105 -260q0 -75 23.5 -128t80.5 -123z" />
    <glyph glyph-name="parenright" unicode=")" horiz-adv-x="405" 
d="M196 713q93 -71 141.5 -157t48.5 -200q0 -221 -141 -362q-98 -98 -252 -136l-45 142q88 35 139 86q105 105 105 260q0 75 -23.5 128t-80.5 123z" />
    <glyph glyph-name="asterisk" unicode="*" horiz-adv-x="406" 
d="M277 319l-122 30l67 123l-120 -71l-36 121l140 5l-121 70l88 89l72 -118l-2 139l122 -29l-66 -124l119 71l36 -121l-140 -4l122 -70l-89 -89l-72 117z" />
    <glyph glyph-name="plus" unicode="+" horiz-adv-x="574" 
d="M150 102l39 158h-155l46 184h154l39 157h189l-39 -157h155l-45 -184h-155l-39 -158h-189z" />
    <glyph glyph-name="comma" unicode="," horiz-adv-x="261" 
d="M-71 -157l-5 78q105 13 124 82h-91l53 215h216l-47 -190q-23 -91 -80.5 -135t-169.5 -50z" />
    <glyph glyph-name="hyphen" unicode="-" horiz-adv-x="387" 
d="M18 225l44 180h327l-44 -180h-327z" />
    <glyph glyph-name="period" unicode="." horiz-adv-x="261" 
d="M-44 0l53 215h216l-53 -215h-216z" />
    <glyph glyph-name="slash" unicode="/" horiz-adv-x="470" 
d="M-135 -118l593 906h168l-593 -906h-168z" />
    <glyph glyph-name="zero" unicode="0" horiz-adv-x="638" 
d="M391 715q117 0 185 -73t68 -192q0 -97 -35 -200.5t-102 -170.5q-95 -95 -222 -95q-118 0 -186 73t-68 193q0 96 35 199.5t102 170.5q93 95 223 95zM302 174q29 0 55 26q30 30 52.5 105.5t22.5 134.5q0 85 -59 85q-29 0 -55 -26q-30 -30 -52.5 -105.5t-22.5 -134.5
q0 -85 59 -85z" />
    <glyph glyph-name="one" unicode="1" horiz-adv-x="378" 
d="M58 0l122 499l-97 -24l6 178l192 51h162l-172 -704h-213z" />
    <glyph glyph-name="two" unicode="2" horiz-adv-x="557" 
d="M-35 0l42 171l298 220q63 48 63 87q0 21 -14 33t-37 12q-55 0 -132 -69l-101 146q124 112 266 112q108 0 170 -55.5t62 -143.5q0 -63 -34.5 -118t-128.5 -119l-132 -96h230l-44 -180h-508z" />
    <glyph glyph-name="three" unicode="3" horiz-adv-x="537" 
d="M225 -14q-162 0 -258 105l117 143q61 -63 134 -63q42 0 66 19.5t24 46.5q0 57 -102 57h-53l6 108l165 121h-224l43 177h476l-40 -161l-185 -133q60 -22 92.5 -65.5t32.5 -101.5q0 -101 -71 -174q-79 -79 -223 -79z" />
    <glyph glyph-name="four" unicode="4" horiz-adv-x="617" 
d="M263 0l29 117h-282l-10 157l407 430h236l-104 -427h76l-40 -160h-75l-29 -117h-208zM207 275h125l45 181z" />
    <glyph glyph-name="five" unicode="5" horiz-adv-x="541" 
d="M228 -14q-75 0 -144.5 27.5t-117.5 69.5l109 146q72 -60 147 -60q45 0 70 24.5t25 59.5q0 28 -19 45t-54 17q-39 0 -81 -27l-104 62l104 350h440l-44 -179h-280l-23 -77q36 13 79 13q92 0 144 -49t52 -135q0 -122 -80 -202q-85 -85 -223 -85z" />
    <glyph glyph-name="six" unicode="6" horiz-adv-x="586" 
d="M276 -14q-117 0 -181 66q-66 64 -66 178q0 99 37 207.5t102 173.5q102 102 254 102q122 0 202 -58l-87 -159q-56 46 -123 46q-61 0 -103 -42q-30 -30 -48 -77q57 37 128 37q73 0 122 -45.5t49 -128.5q0 -62 -22.5 -120.5t-62.5 -98.5q-81 -81 -201 -81zM278 144
q25 0 45 20q34 34 34 94q0 30 -13.5 46t-36.5 16q-25 0 -46 -19q-35 -35 -35 -93q0 -33 17 -50q14 -14 35 -14z" />
    <glyph glyph-name="seven" unicode="7" horiz-adv-x="531" 
d="M-14 0l347 514h-258l45 186h497l-39 -157l-357 -543h-235z" />
    <glyph glyph-name="eight" unicode="8" horiz-adv-x="588" 
d="M269 -11q-119 0 -190 52t-71 140q0 138 147 193q-60 51 -60 128q0 87 71.5 148t195.5 61q112 0 177 -52.5t65 -133.5q0 -61 -35 -107.5t-98 -69.5q83 -48 83 -137q0 -98 -78.5 -160t-206.5 -62zM278 142q33 0 54.5 26.5t21.5 60.5q0 30 -17 47t-43 17q-33 0 -54.5 -26.5
t-21.5 -60.5q0 -30 17 -47t43 -17zM336 418q31 0 50.5 24.5t19.5 55.5q0 28 -15.5 44.5t-40.5 16.5q-31 0 -50.5 -24.5t-19.5 -55.5q0 -28 15.5 -44.5t40.5 -16.5z" />
    <glyph glyph-name="nine" unicode="9" horiz-adv-x="586" 
d="M201 -12q-125 0 -213 66l88 160q64 -54 134 -54q61 0 104 43q30 30 45 71q-61 -40 -129 -40q-73 0 -121.5 47t-48.5 131q0 63 23 122t63 100q81 81 201 81q118 0 181 -65q65 -63 65 -185q0 -101 -36.5 -205t-101.5 -170q-102 -102 -254 -102zM316 374q25 0 46 21
q14 14 24.5 42.5t10.5 57.5q0 34 -15 49q-13 13 -36 13q-25 0 -45 -20q-15 -15 -25.5 -44t-10.5 -59q0 -27 14 -43.5t37 -16.5z" />
    <glyph glyph-name="colon" unicode=":" horiz-adv-x="268" 
d="M-41 0l54 215h215l-53 -215h-216zM39 331l53 215h216l-53 -215h-216z" />
    <glyph glyph-name="semicolon" unicode=";" horiz-adv-x="268" 
d="M-68 -160l-6 78q106 13 124 82h-91l54 215h215l-46 -190q-23 -91 -80.5 -135t-169.5 -50zM39 331l53 215h216l-53 -215h-216z" />
    <glyph glyph-name="less" unicode="&#x3c;" horiz-adv-x="574" 
d="M464 70l-421 185l49 193l510 185l-52 -209l-299 -82l260 -81z" />
    <glyph glyph-name="equal" unicode="=" horiz-adv-x="574" 
d="M9 132l44 179h486l-45 -179h-485zM73 393l44 179h486l-44 -179h-486z" />
    <glyph glyph-name="greater" unicode="&#x3e;" horiz-adv-x="574" 
d="M10 70l52 209l300 81l-261 82l47 191l421 -185l-48 -193z" />
    <glyph glyph-name="question" unicode="?" horiz-adv-x="489" 
d="M143 222l17 177l11 10q145 15 145 73q0 40 -47 40q-52 0 -117 -42l-63 166q104 64 223 64q100 0 159.5 -50t59.5 -130q0 -89 -54.5 -144t-167.5 -81l-36 -83h-130zM42 0l45 180h216l-45 -180h-216z" />
    <glyph glyph-name="at" unicode="@" horiz-adv-x="834" 
d="M386 -148q-162 0 -260.5 97t-98.5 259q0 134 58 249.5t163.5 186t233.5 70.5q159 0 251 -89t92 -231q0 -155 -69.5 -250t-166.5 -95q-52 0 -88 23.5t-53 64.5q-62 -83 -143 -83q-55 0 -91 41.5t-36 113.5q0 79 29.5 152.5t81.5 120.5t112 47q78 0 107 -72l21 69l161 -40
l-78 -270q-10 -31 -10 -53q0 -20 12.5 -32t34.5 -12q48 0 91 80t43 197q0 123 -80.5 200t-222.5 77q-115 0 -210 -65t-147.5 -171t-52.5 -228q0 -145 86.5 -230.5t232.5 -85.5q95 0 186 44l17 -36q-99 -49 -206 -49zM391 193q31 0 58.5 49t27.5 94q0 51 -39 51
q-33 0 -60 -49t-27 -94q0 -51 40 -51z" />
    <glyph glyph-name="A" unicode="A" horiz-adv-x="680" 
d="M-81 0l415 704h226l70 -704h-224l-7 100h-197l-53 -100h-230zM288 260h105l-9 182z" />
    <glyph glyph-name="B" unicode="B" horiz-adv-x="625" 
d="M-35 0l172 700h258q253 0 253 -165q0 -66 -39.5 -114.5t-109.5 -70.5q99 -36 99 -134q0 -99 -79 -157.5t-240 -58.5h-314zM217 172h81q40 0 62.5 18t22.5 46q0 45 -69 45h-71zM278 424h76q41 0 61.5 17t20.5 44q0 43 -67 43h-66z" />
    <glyph glyph-name="C" unicode="C" horiz-adv-x="617" 
d="M321 -14q-132 0 -212.5 80t-80.5 215q0 90 32.5 177.5t96.5 150.5q103 105 265 105q83 0 150 -41t100 -111l-166 -118q-38 71 -98 71q-51 0 -90 -39q-32 -31 -48.5 -80.5t-16.5 -94.5q0 -56 26.5 -86t66.5 -30q55 0 116 58l119 -142q-107 -115 -260 -115z" />
    <glyph glyph-name="D" unicode="D" horiz-adv-x="657" 
d="M-35 0l172 700h202q171 0 256 -83q71 -71 71 -196q0 -80 -30.5 -165t-87.5 -142q-114 -114 -326 -114h-257zM419 480q-29 29 -91 29h-24l-76 -318h26q85 0 134 47q26 26 42.5 73t16.5 89q0 52 -28 80z" />
    <glyph glyph-name="E" unicode="E" horiz-adv-x="576" 
d="M-35 0l172 700h513l-46 -184h-300l-19 -80h277l-41 -168h-277l-21 -84h305l-45 -184h-518z" />
    <glyph glyph-name="F" unicode="F" horiz-adv-x="549" 
d="M-35 0l172 700h501l-47 -190h-286l-22 -92h263l-43 -176h-264l-58 -242h-216z" />
    <glyph glyph-name="G" unicode="G" horiz-adv-x="650" 
d="M331 -14q-131 0 -217.5 74t-86.5 214q0 87 32.5 176.5t91.5 149.5q116 114 288 114q81 0 148.5 -29.5t104.5 -72.5l-132 -149q-57 57 -132 57q-70 0 -115 -45q-34 -33 -51.5 -87.5t-17.5 -101.5q0 -58 29.5 -88t77.5 -30q27 0 46 8l23 89h-93l36 152h294l-92 -370
q-108 -61 -234 -61z" />
    <glyph glyph-name="H" unicode="H" horiz-adv-x="664" 
d="M-35 0l172 700h215l-62 -252h169l62 252h215l-171 -700h-215l62 256h-169l-62 -256h-216z" />
    <glyph glyph-name="I" unicode="I" horiz-adv-x="283" 
d="M-33 0l172 700h215l-171 -700h-216z" />
    <glyph glyph-name="J" unicode="J" horiz-adv-x="487" 
d="M180 -13q-71 0 -130 28.5t-92 75.5l127 138q39 -52 81 -52q28 0 46 18q22 22 35 73l105 432h212l-109 -450q-31 -128 -100 -197q-66 -66 -175 -66z" />
    <glyph glyph-name="K" unicode="K" horiz-adv-x="631" 
d="M-35 0l172 700h215l-60 -243l193 243h253l-270 -317l109 -383h-228l-59 226l-75 -84l-34 -142h-216z" />
    <glyph glyph-name="L" unicode="L" horiz-adv-x="523" 
d="M-35 0l172 700h215l-124 -510h261l-48 -190h-476z" />
    <glyph glyph-name="M" unicode="M" horiz-adv-x="757" 
d="M-35 0l172 700h209l70 -232l185 232h229l-171 -700h-213l83 340l-191 -230h-3l-76 230l-83 -340h-211z" />
    <glyph glyph-name="N" unicode="N" horiz-adv-x="679" 
d="M-35 0l172 700h204l120 -315l78 315h213l-171 -700h-195l-127 330l-81 -330h-213z" />
    <glyph glyph-name="O" unicode="O" horiz-adv-x="692" 
d="M404 714q131 0 213 -79.5t82 -214.5q0 -88 -33.5 -179t-95.5 -153q-102 -102 -244 -102q-132 0 -214 79.5t-82 214.5q0 88 33.5 179t96.5 154q101 101 244 101zM339 177q43 0 77 34q31 31 49.5 88t18.5 106q0 57 -24.5 87.5t-68.5 30.5q-45 0 -77 -34q-30 -30 -49 -88
t-19 -107q0 -57 24 -87t69 -30z" />
    <glyph glyph-name="P" unicode="P" horiz-adv-x="589" 
d="M-35 0l172 700h204q161 0 230 -69q56 -56 56 -141q0 -128 -78 -206q-88 -90 -253 -90h-68l-47 -194h-216zM394 505q-19 19 -58 19h-28l-40 -167h28q59 0 87 28t28 74q0 29 -17 46z" />
    <glyph glyph-name="Q" unicode="Q" horiz-adv-x="693" 
d="M404 714q131 0 213 -79.5t82 -214.5q0 -76 -26.5 -156t-75.5 -141l47 -78l-146 -82l-31 56q-71 -33 -141 -33q-132 0 -214 79.5t-82 214.5q0 88 33.5 179t96.5 154q101 101 244 101zM336 171q12 0 26 3l-56 88l146 82l18 -31q14 48 14 90q0 58 -24 89t-68 31
q-47 0 -79 -34q-31 -31 -50 -90t-19 -109q0 -119 92 -119z" />
    <glyph glyph-name="R" unicode="R" horiz-adv-x="626" 
d="M331 0l-62 205q-5 0 -15 -0.5t-15 -0.5h-9l-49 -204h-216l172 700h225q170 0 240 -70q53 -52 53 -141q0 -113 -69 -182q-40 -40 -105 -63l80 -244h-230zM269 363h56q56 0 84 28q26 26 26 68q0 25 -16 41q-18 18 -58 18h-54z" />
    <glyph glyph-name="S" unicode="S" horiz-adv-x="569" 
d="M257 -13q-169 0 -294 110l111 160q100 -88 198 -88q23 0 36.5 9.5t13.5 25.5t-16 27.5t-74 39.5q-85 40 -123.5 84.5t-38.5 113.5q0 97 67 164q80 80 219 80q156 0 266 -94l-116 -155q-82 68 -165 68q-51 0 -51 -33q0 -15 16.5 -27t78.5 -42q80 -39 119.5 -83t39.5 -115
q0 -99 -68 -167q-78 -78 -219 -78z" />
    <glyph glyph-name="T" unicode="T" horiz-adv-x="578" 
d="M114 0l125 511h-171l47 189h557l-47 -189h-170l-125 -511h-216z" />
    <glyph glyph-name="U" unicode="U" horiz-adv-x="659" 
d="M293 -13q-129 0 -198 58.5t-69 162.5q0 56 15 118l90 374h218l-94 -391q-9 -36 -9 -61q0 -33 19 -51t54 -18q37 0 60 23q24 24 39 82l101 416h217l-106 -438q-32 -127 -97 -192q-81 -83 -240 -83z" />
    <glyph glyph-name="V" unicode="V" horiz-adv-x="655" 
d="M152 -4l-64 704h231l13 -389l206 389h236l-409 -704h-213z" />
    <glyph glyph-name="W" unicode="W" horiz-adv-x="957" 
d="M115 -4l-19 704h222l-5 -349l175 351h183l7 -351l162 349h227l-362 -704h-198l-16 329l-178 -329h-198z" />
    <glyph glyph-name="X" unicode="X" horiz-adv-x="628" 
d="M-85 0l290 368l-107 332h228l45 -174l125 174h240l-272 -347l116 -353h-228l-52 198l-144 -198h-241z" />
    <glyph glyph-name="Y" unicode="Y" horiz-adv-x="617" 
d="M126 0l63 260l-108 440h224l39 -233l152 233h246l-342 -460l-58 -240h-216z" />
    <glyph glyph-name="Z" unicode="Z" horiz-adv-x="577" 
d="M-49 0l40 160l342 356h-247l45 184h533l-39 -160l-342 -356h255l-45 -184h-542z" />
    <glyph glyph-name="bracketleft" unicode="[" horiz-adv-x="404" 
d="M-47 -130l203 830h324l-33 -132h-144l-138 -566h145l-33 -132h-324z" />
    <glyph glyph-name="backslash" unicode="\" horiz-adv-x="470" 
d="M258 -118l-163 906h158l164 -906h-159z" />
    <glyph glyph-name="bracketright" unicode="]" horiz-adv-x="404" 
d="M456 700l-203 -830h-324l33 132h144l138 566h-145l33 132h324z" />
    <glyph glyph-name="asciicircum" unicode="^" 
d="M107 489l173 209h148l71 -209h-134l-34 94l-79 -94h-145z" />
    <glyph glyph-name="underscore" unicode="_" horiz-adv-x="570" 
d="M-107 -157l29 119h573l-28 -119h-574z" />
    <glyph glyph-name="grave" unicode="`" 
d="M320 576l-121 122l202 50l44 -172h-125z" />
    <glyph glyph-name="a" unicode="a" horiz-adv-x="539" 
d="M118 -12q-58 0 -93 37t-35 101q0 94 55 149q54 56 161 56q56 0 111 -20l2 7q4 16 4 27q0 52 -75 52q-72 0 -132 -24l-24 154q95 28 205 28q117 0 177 -44t60 -127q0 -36 -9 -75l-75 -309h-209l12 49q-35 -31 -65 -46t-70 -15zM222 112q23 0 42 20t26 53l9 41q-21 7 -43 7
q-28 0 -46 -18q-23 -23 -23 -60q0 -43 35 -43z" />
    <glyph glyph-name="b" unicode="b" horiz-adv-x="595" 
d="M330 -13q-95 0 -141 80l-16 -67h-210l177 725h209l-57 -236q63 70 142 70q66 0 108.5 -50.5t42.5 -139.5q0 -84 -29.5 -175.5t-80.5 -142.5q-64 -64 -145 -64zM279 163q29 0 51 22q20 20 32.5 58.5t12.5 71.5q0 69 -55 69q-28 0 -50 -22q-20 -20 -32.5 -58.5t-12.5 -71.5
q0 -69 54 -69z" />
    <glyph glyph-name="c" unicode="c" horiz-adv-x="489" 
d="M243 -14q-104 0 -169 62t-65 168q0 156 101 257q85 85 205 85q75 0 129 -36.5t77 -96.5l-147 -98q-24 53 -62 53q-30 0 -55 -25q-20 -20 -32 -53.5t-12 -65.5q0 -36 16 -54t41 -18q36 0 74 38l111 -120q-79 -96 -212 -96z" />
    <glyph glyph-name="d" unicode="d" horiz-adv-x="595" 
d="M289 0l14 57q-65 -70 -142 -70q-67 0 -109.5 50.5t-42.5 139.5q0 84 29.5 175.5t81.5 142.5q62 64 145 64q93 0 141 -80l59 246h210l-177 -725h-209zM274 162q28 0 50 22q20 20 32.5 58.5t12.5 71.5q0 69 -54 69q-29 0 -51 -22q-20 -20 -32.5 -58.5t-12.5 -71.5
q0 -69 55 -69z" />
    <glyph glyph-name="e" unicode="e" horiz-adv-x="536" 
d="M512 214h-308q3 -68 77 -68q53 0 110 38l77 -126q-89 -71 -212 -71q-115 0 -180 63t-65 171q0 69 26 137.5t75 117.5q83 83 204 83q109 0 162 -62t53 -159q0 -58 -19 -124zM253 383q-22 -22 -35 -66h124q5 19 5 36q0 22 -12.5 37t-33.5 15q-26 0 -48 -22z" />
    <glyph glyph-name="f" unicode="f" horiz-adv-x="375" 
d="M-3 0l93 383h-52l40 163h52l2 8q19 79 62 124q53 52 156 52q63 0 125 -18l-34 -136q-27 10 -52 10q-24 0 -36 -9t-17 -31l-1 -5h98l-39 -158h-95l-93 -383h-209z" />
    <glyph glyph-name="g" unicode="g" horiz-adv-x="591" 
d="M200 -153q-140 0 -249 56l69 140q85 -46 170 -46q58 0 88 29q25 24 39 74l4 15q-64 -66 -146 -66q-70 0 -113.5 46t-43.5 128q0 73 26.5 150.5t73.5 124.5q60 60 142 60q96 0 146 -79l16 67h210l-107 -442q-30 -122 -90 -182q-75 -75 -235 -75zM279 200q31 0 50 21
q37 40 37 102q0 33 -15 51t-40 18q-28 0 -49 -21q-38 -38 -38 -104q0 -33 15 -50t40 -17z" />
    <glyph glyph-name="h" unicode="h" horiz-adv-x="570" 
d="M-37 0l177 725h210l-60 -244q63 78 148 78q65 0 100 -38.5t35 -104.5q0 -37 -10 -81l-81 -335h-210l72 298q6 23 6 38q0 38 -38 38q-48 0 -66 -69l-73 -305h-210z" />
    <glyph glyph-name="i" unicode="i" horiz-adv-x="273" 
d="M-35 0l133 546h210l-133 -546h-210zM104 582l36 143h215l-35 -143h-216z" />
    <glyph glyph-name="j" unicode="j" horiz-adv-x="275" 
d="M-52 -154q-38 0 -79 7l31 124q2 0 6.5 -0.5t7.5 -0.5q28 0 41.5 14t23.5 56l121 500h210l-126 -518q-26 -104 -79.5 -143t-156.5 -39zM107 582l35 143h216l-36 -143h-215z" />
    <glyph glyph-name="k" unicode="k" horiz-adv-x="545" 
d="M-37 0l177 725h210l-82 -332l124 153h234l-204 -235l73 -311h-216l-29 166l-51 -55l-26 -111h-210z" />
    <glyph glyph-name="l" unicode="l" horiz-adv-x="273" 
d="M-35 0l177 725h210l-177 -725h-210z" />
    <glyph glyph-name="m" unicode="m" horiz-adv-x="872" 
d="M-37 0l133 546h209l-15 -63q63 76 148 76q94 0 122 -84q76 84 176 84q69 0 104.5 -38t35.5 -103q0 -29 -11 -80l-81 -338h-209l73 300q5 20 5 36q0 38 -37 38q-48 0 -64 -69l-74 -305h-209l73 300q5 20 5 36q0 38 -37 38q-48 0 -64 -69l-74 -305h-209z" />
    <glyph glyph-name="n" unicode="n" horiz-adv-x="570" 
d="M-37 0l133 546h209l-15 -65q63 78 148 78q65 0 100 -38.5t35 -104.5q0 -37 -10 -81l-81 -335h-210l72 298q6 23 6 38q0 38 -38 38q-48 0 -66 -69l-73 -305h-210z" />
    <glyph glyph-name="o" unicode="o" horiz-adv-x="568" 
d="M315 559q113 0 176.5 -65t63.5 -170q0 -70 -25.5 -138.5t-71.5 -114.5q-84 -84 -205 -84q-113 0 -176.5 65t-63.5 170q0 70 25.5 138.5t72.5 114.5q82 84 204 84zM266 160q27 0 46 21q19 18 32 56.5t13 76.5q0 34 -14.5 53t-40.5 19q-25 0 -46 -21q-18 -18 -31.5 -56.5
t-13.5 -76.5q0 -34 14.5 -53t40.5 -19z" />
    <glyph glyph-name="p" unicode="p" horiz-adv-x="595" 
d="M330 -13q-95 0 -141 80l-53 -217h-210l170 696h209l-13 -57q63 70 142 70q66 0 108.5 -50.5t42.5 -139.5q0 -84 -29.5 -175.5t-80.5 -142.5q-64 -64 -145 -64zM279 163q29 0 51 22q20 20 32.5 58.5t12.5 71.5q0 69 -55 69q-28 0 -50 -22q-20 -20 -32.5 -58.5t-12.5 -71.5
q0 -69 54 -69z" />
    <glyph glyph-name="q" unicode="q" horiz-adv-x="595" 
d="M161 -13q-67 0 -109.5 50.5t-42.5 139.5q0 84 29.5 175.5t81.5 142.5q62 64 145 64q93 0 141 -80l16 67h210l-170 -696h-210l51 207q-65 -70 -142 -70zM274 162q28 0 50 22q20 20 32.5 58.5t12.5 71.5q0 69 -54 69q-29 0 -51 -22q-20 -20 -32.5 -58.5t-12.5 -71.5
q0 -69 55 -69z" />
    <glyph glyph-name="r" unicode="r" horiz-adv-x="389" 
d="M-37 0l133 546h209l-24 -102q70 115 170 110l-57 -231h-17q-67 0 -106 -37t-59 -117l-39 -169h-210z" />
    <glyph glyph-name="s" unicode="s" horiz-adv-x="463" 
d="M207 -13q-148 0 -253 86l90 135q35 -30 81 -51t82 -21q30 0 30 20q0 12 -12 20.5t-57 29.5q-64 32 -96 67.5t-32 89.5q0 85 62 140.5t169 55.5q134 0 227 -71l-90 -135q-30 23 -69 40t-71 17t-32 -19q0 -10 11 -17t55 -28q65 -31 98.5 -67t33.5 -95q0 -80 -57.5 -138.5
t-169.5 -58.5z" />
    <glyph glyph-name="t" unicode="t" horiz-adv-x="389" 
d="M199 -12q-169 0 -169 132q0 26 10 68l46 195h-52l40 163h53l32 134h209l-32 -134h105l-41 -163h-105l-36 -154q-5 -23 -5 -36q0 -30 38 -30q19 0 56 10l-42 -169q-56 -16 -107 -16z" />
    <glyph glyph-name="u" unicode="u" horiz-adv-x="570" 
d="M136 -13q-65 0 -100 38.5t-35 104.5q0 38 11 81l80 335h210l-72 -298q-5 -25 -5 -38q0 -38 38 -38q48 0 65 69l74 305h209l-132 -546h-210l16 65q-63 -78 -149 -78z" />
    <glyph glyph-name="v" unicode="v" horiz-adv-x="571" 
d="M123 -4l-56 550h214l4 -278l139 278h220l-323 -550h-198z" />
    <glyph glyph-name="w" unicode="w" horiz-adv-x="767" 
d="M80 -4l-11 550h198l-9 -231l110 233h165l-3 -235l104 233h204l-280 -550h-175l-6 230l-118 -230h-179z" />
    <glyph glyph-name="x" unicode="x" horiz-adv-x="539" 
d="M279 546l27 -119l81 119h224l-222 -277l91 -269h-211l-28 125l-85 -125h-224l225 282l-89 264h211z" />
    <glyph glyph-name="y" unicode="y" horiz-adv-x="571" 
d="M125 16l-55 530h210l8 -286l139 286h217l-300 -529q-54 -94 -109 -132.5t-138 -38.5t-145 39l70 152q39 -28 74 -28q16 0 29 7z" />
    <glyph glyph-name="z" unicode="z" horiz-adv-x="490" 
d="M-49 0l34 138l253 241h-188l41 167h454l-34 -138l-253 -241h196l-42 -167h-461z" />
    <glyph glyph-name="braceleft" unicode="{" horiz-adv-x="446" 
d="M303 -138q-127 10 -178.5 46.5t-51.5 95.5q0 35 19 84q18 60 18 79q0 27 -19 40t-64 13h-20l32 132h20q69 0 97 28q29 30 33 106q4 37 7 56t15.5 50t33.5 52q68 68 259 67l10 -121q-82 -3 -115 -37q-20 -19 -26 -45t-9 -72q-6 -78 -40 -112q-35 -36 -117 -46
q88 -20 88 -98q0 -30 -16 -74q-16 -42 -16 -64q0 -27 18.5 -42.5t67.5 -22.5z" />
    <glyph glyph-name="bar" unicode="|" horiz-adv-x="312" 
d="M-15 -118l222 906h151l-223 -906h-150z" />
    <glyph glyph-name="braceright" unicode="}" horiz-adv-x="446" 
d="M149 710q127 -10 178.5 -46.5t51.5 -95.5q0 -35 -19 -84q-18 -60 -18 -79q0 -27 19 -40t64 -13h20l-32 -132h-20q-69 0 -97 -28q-29 -30 -33 -106q-4 -37 -7 -56t-15.5 -50t-33.5 -52q-68 -68 -259 -67l-10 121q82 3 115 37q20 19 26 45t9 72q6 78 40 112q35 36 117 46
q-88 20 -88 98q0 30 16 74q16 42 16 64q0 27 -18.5 42.5t-67.5 22.5z" />
    <glyph glyph-name="asciitilde" unicode="~" horiz-adv-x="452" 
d="M115 225l-89 32q25 70 63.5 106t81.5 36q37 0 81 -27q38 -20 51 -20q29 0 54 48l88 -33q-25 -70 -63.5 -105.5t-81.5 -35.5q-37 0 -80 26q-37 21 -52 21q-27 0 -53 -48z" />
    <glyph glyph-name="uni00A0" unicode="&#xa0;" horiz-adv-x="198" 
 />
    <glyph glyph-name="exclamdown" unicode="&#xa1;" horiz-adv-x="290" 
d="M247 478l-20 -373l-27 -105h-241l27 105l158 373h103zM357 700l-44 -180h-216l44 180h216z" />
    <glyph glyph-name="cent" unicode="&#xa2;" horiz-adv-x="506" 
d="M353 706h118l-29 -84q76 -34 107 -112l-129 -90q-11 30 -31 46t-60 16q-37 0 -64 -28q-24 -24 -37 -61.5t-13 -73.5q0 -44 22.5 -66.5t56.5 -22.5q49 0 91 47l98 -110q-80 -96 -209 -96h-11l-26 -77h-117l34 102q-57 27 -88 80.5t-31 126.5q0 69 25 137t75 118
q82 82 197 85z" />
    <glyph glyph-name="sterling" unicode="&#xa3;" horiz-adv-x="551" 
d="M-34 0l31 129l78 32l26 103h-69l35 145h69l8 37q28 126 94 194q75 73 197 73q118 0 193 -73l-113 -150q-36 34 -77 34q-31 0 -52 -21q-19 -19 -31 -64l-7 -30h163l-35 -145h-163l-22 -92h227l-42 -172h-510z" />
    <glyph glyph-name="yen" unicode="&#xa5;" horiz-adv-x="630" 
d="M139 0l23 94h-159l32 131h158l10 39h-158l32 131h114l-95 305h219l46 -212l134 212h244l-242 -305h111l-31 -131h-158l-10 -39h158l-32 -131h-159l-23 -94h-214z" />
    <glyph glyph-name="section" unicode="&#xa7;" horiz-adv-x="557" 
d="M553 365q0 -97 -115 -131q30 -35 30 -82q0 -71 -58.5 -118.5t-161.5 -47.5q-145 0 -251 85l88 124q30 -25 76 -45.5t80 -20.5q33 0 33 22q0 11 -16 20.5t-65 27.5q-77 28 -114.5 59t-37.5 77q0 98 115 130q-29 36 -29 83q0 71 58.5 118.5t160.5 47.5q147 0 251 -85
l-87 -124q-31 25 -77 45.5t-79 20.5t-33 -22q0 -11 15.5 -20.5t64.5 -27.5q78 -28 115 -59t37 -77zM198 374q0 -24 80 -57q61 -22 80 -22q17 0 28 8.5t11 22.5q0 24 -81 57q-61 22 -79 22q-17 0 -28 -8.5t-11 -22.5z" />
    <glyph glyph-name="dieresis" unicode="&#xa8;" 
d="M143 576l35 142h164l-35 -142h-164zM342 576l35 142h163l-35 -142h-163z" />
    <glyph glyph-name="copyright" unicode="&#xa9;" horiz-adv-x="722" 
d="M365 149q-72 0 -117 45.5t-45 122.5q0 110 71 180q61 61 148 61q52 0 89.5 -25t54.5 -66l-98 -62q-20 39 -53 39q-27 0 -50 -23q-35 -35 -35 -94q0 -64 50 -64q31 0 65 32l71 -78q-68 -68 -151 -68zM702 416q0 -90 -31.5 -179t-95.5 -152q-100 -100 -239 -100
q-126 0 -202.5 82.5t-76.5 216.5q0 90 31.5 179t95.5 152q100 100 239 100q126 0 202.5 -82.5t76.5 -216.5zM98 286q0 -118 64 -190t177 -72q121 0 206 85q58 58 87.5 140t29.5 165q0 118 -64 190t-177 72q-122 0 -207 -85q-58 -57 -87 -139.5t-29 -165.5z" />
    <glyph glyph-name="ordfeminine" unicode="&#xaa;" horiz-adv-x="347" 
d="M151 397q-31 0 -50 20.5t-19 55.5q0 43 31 77.5t89 34.5q27 0 60 -11l1 5q2 5 2 14q0 27 -39 27q-35 0 -72 -14l-12 83q51 18 114 18q61 0 93 -24t32 -68q0 -16 -5 -39l-42 -172h-115l8 28q-38 -35 -76 -35zM209 466q12 0 23 11t15 28l5 21q-11 5 -23 5
q-17 0 -27.5 -13.5t-10.5 -29.5q0 -22 18 -22zM33 269l21 86h275l-22 -86h-274z" />
    <glyph glyph-name="guillemotleft" unicode="&#xab;" horiz-adv-x="550" 
d="M118 34l-107 218l19 70l192 197l101 -83l-130 -167l58 -180zM349 30l-114 234l3 11l228 233l102 -83l-138 -173l51 -166z" />
    <glyph glyph-name="registered" unicode="&#xae;" horiz-adv-x="334" 
d="M253 710q60 0 97.5 -40t37.5 -101q0 -98 -60 -158q-50 -50 -118 -50q-61 0 -98.5 40t-37.5 101q0 98 60 158q52 50 119 50zM212 379q59 0 102 43q55 56 55 145q0 55 -31.5 89.5t-86.5 34.5q-60 0 -102 -42q-56 -56 -56 -145q0 -55 32 -90t87 -35zM208 499l-13 -55h-59
l45 189h63q79 0 79 -58q0 -47 -47 -64l22 -67h-63l-17 55h-10zM219 544h15q16 0 23 7t7 17q0 16 -19 16h-16z" />
    <glyph glyph-name="macron" unicode="&#xaf;" 
d="M151 580l29 118h349l-29 -118h-349z" />
    <glyph glyph-name="degree" unicode="&#xb0;" horiz-adv-x="399" 
d="M269 709q73 0 115 -45.5t42 -112.5q0 -102 -64 -165q-50 -52 -125 -52q-74 0 -116 45.5t-42 112.5q0 101 64 165q52 52 126 52zM242 440q20 0 37 17q31 31 31 88q0 27 -12 42.5t-34 15.5q-21 0 -38 -17q-30 -30 -30 -88q0 -27 12 -42.5t34 -15.5z" />
    <glyph glyph-name="plusminus" unicode="&#xb1;" horiz-adv-x="574" 
d="M183 203l38 152l-161 -1l40 163h161l36 151h175l-38 -151h161l-41 -163l-160 1l-37 -152h-174zM-26 0l36 150h494l-37 -150h-493z" />
    <glyph glyph-name="acute" unicode="&#xb4;" 
d="M196 576l130 172l195 -50l-182 -122h-143z" />
    <glyph glyph-name="paragraph" unicode="&#xb6;" horiz-adv-x="515" 
d="M214 0l52 216q-117 12 -171 66q-48 48 -48 130q0 122 77 199q89 89 256 89h209l-170 -700h-205z" />
    <glyph glyph-name="periodcentered" unicode="&#xb7;" horiz-adv-x="261" 
d="M6 208l53 214h216l-53 -214h-216z" />
    <glyph glyph-name="cedilla" unicode="&#xb8;" 
d="M172 -160l-162 62l122 118h135z" />
    <glyph glyph-name="ordmasculine" unicode="&#xba;" horiz-adv-x="348" 
d="M37 269l20 86h259l-20 -86h-259zM195 529q0 -41 30 -41q14 0 25 11t18 32.5t7 38.5q0 41 -30 41q-14 0 -25 -11t-18 -32.5t-7 -38.5zM384 573q0 -79 -54 -135q-47 -45 -111 -45q-62 0 -97.5 37t-35.5 96q0 81 54 135q45 45 111 45q63 0 98 -36.5t35 -96.5z" />
    <glyph glyph-name="guillemotright" unicode="&#xbb;" horiz-adv-x="550" 
d="M432 514l107 -218l-19 -70l-192 -197l-101 83l130 167l-58 180zM201 518l114 -234l-3 -11l-228 -233l-102 83l138 173l-51 166z" />
    <glyph glyph-name="questiondown" unicode="&#xbf;" horiz-adv-x="489" 
d="M385 478l-17 -177l-11 -10q-145 -15 -145 -73q0 -40 47 -40q52 0 117 42l63 -166q-104 -64 -223 -64q-100 0 -159.5 50t-59.5 130q0 89 54.5 144t167.5 81l36 83h130zM486 700l-45 -180h-216l45 180h216z" />
    <glyph glyph-name="Agrave" unicode="&#xc0;" horiz-adv-x="680" 
d="M-81 0l415 704h226l70 -704h-224l-7 100h-197l-53 -100h-230zM288 260h105l-9 182zM379 743l-118 103l214 45l47 -148h-143z" />
    <glyph glyph-name="Aacute" unicode="&#xc1;" horiz-adv-x="680" 
d="M-81 0l415 704h226l70 -704h-224l-7 100h-197l-53 -100h-230zM288 260h105l-9 182zM375 743l121 148l210 -45l-171 -103h-160z" />
    <glyph glyph-name="Acircumflex" unicode="&#xc2;" horiz-adv-x="680" 
d="M-81 0l415 704h226l70 -704h-224l-7 100h-197l-53 -100h-230zM288 260h105l-9 182zM260 743l137 135h174l70 -135h-118l-55 45l-78 -45h-130z" />
    <glyph glyph-name="Atilde" unicode="&#xc3;" horiz-adv-x="680" 
d="M-81 0l415 704h226l70 -704h-224l-7 100h-197l-53 -100h-230zM288 260h105l-9 182zM353 737l-93 22q24 77 55.5 111.5t76.5 34.5q35 0 91 -20q46 -16 59 -16q29 0 49 40l92 -21q-24 -77 -55.5 -112t-76.5 -35q-30 0 -91 21q-50 16 -59 16q-17 0 -27 -9t-21 -32z" />
    <glyph glyph-name="Adieresis" unicode="&#xc4;" horiz-adv-x="680" 
d="M-81 0l415 704h226l70 -704h-224l-7 100h-197l-53 -100h-230zM288 260h105l-9 182zM276 743l34 138h165l-34 -138h-165zM476 743l34 138h166l-35 -138h-165z" />
    <glyph glyph-name="Aring" unicode="&#xc5;" horiz-adv-x="680" 
d="M-81 0l400 681q-10 22 -10 45q0 58 46.5 100t112.5 42q55 0 91 -31t36 -78t-32 -85l67 -674h-224l-7 100h-197l-53 -100h-230zM444 676q36 0 58 23t22 51q0 26 -17.5 41.5t-46.5 15.5q-36 0 -58 -23t-22 -51q0 -25 17.5 -41t46.5 -16zM288 260h105l-9 182z" />
    <glyph glyph-name="AE" unicode="&#xc6;" horiz-adv-x="944" 
d="M-83 0l455 700h646l-46 -184h-286l-19 -80h264l-41 -168h-264l-21 -84h292l-46 -184h-500l24 100h-169l-60 -100h-229zM305 260h109l65 266h-10z" />
    <glyph glyph-name="Ccedilla" unicode="&#xc7;" horiz-adv-x="617" 
d="M258 -160l-162 62l107 104q-82 30 -128.5 101.5t-46.5 173.5q0 90 32.5 177.5t96.5 150.5q103 105 265 105q83 0 150 -41t100 -111l-166 -118q-38 71 -98 71q-51 0 -90 -39q-32 -31 -48.5 -80.5t-16.5 -94.5q0 -56 26.5 -86t66.5 -30q55 0 116 58l119 -142
q-103 -110 -246 -114z" />
    <glyph glyph-name="Egrave" unicode="&#xc8;" horiz-adv-x="576" 
d="M323 734l-118 103l214 45l47 -148h-143zM-35 0l172 700h513l-46 -184h-300l-19 -80h277l-41 -168h-277l-21 -84h305l-45 -184h-518z" />
    <glyph glyph-name="Eacute" unicode="&#xc9;" horiz-adv-x="576" 
d="M318 734l121 148l210 -45l-171 -103h-160zM-35 0l172 700h513l-46 -184h-300l-19 -80h277l-41 -168h-277l-21 -84h305l-45 -184h-518z" />
    <glyph glyph-name="Ecircumflex" unicode="&#xca;" horiz-adv-x="576" 
d="M-35 0l172 700h513l-46 -184h-300l-19 -80h277l-41 -168h-277l-21 -84h305l-45 -184h-518zM204 734l137 135h174l70 -135h-118l-55 45l-78 -45h-130z" />
    <glyph glyph-name="Edieresis" unicode="&#xcb;" horiz-adv-x="576" 
d="M219 734l34 138h165l-34 -138h-165zM419 734l34 138h166l-35 -138h-165zM-35 0l172 700h513l-46 -184h-300l-19 -80h277l-41 -168h-277l-21 -84h305l-45 -184h-518z" />
    <glyph glyph-name="Igrave" unicode="&#xcc;" horiz-adv-x="283" 
d="M-33 0l172 700h215l-171 -700h-216zM176 734l-118 103l214 45l47 -148h-143z" />
    <glyph glyph-name="Iacute" unicode="&#xcd;" horiz-adv-x="283" 
d="M-33 0l172 700h215l-171 -700h-216zM173 734l121 148l210 -45l-171 -103h-160z" />
    <glyph glyph-name="Icircumflex" unicode="&#xce;" horiz-adv-x="283" 
d="M-33 0l172 700h215l-171 -700h-216zM58 734l137 135h174l70 -135h-118l-55 45l-78 -45h-130z" />
    <glyph glyph-name="Idieresis" unicode="&#xcf;" horiz-adv-x="283" 
d="M-33 0l172 700h215l-171 -700h-216zM74 734l34 138h165l-34 -138h-165zM274 734l34 138h166l-35 -138h-165z" />
    <glyph glyph-name="Eth" unicode="&#xd0;" horiz-adv-x="703" 
d="M17 271l40 162h67l66 267h197q173 0 256 -83q71 -71 71 -196q0 -80 -30.5 -165t-86.5 -142q-116 -114 -326 -114h-252l66 271h-68zM475 485q-31 31 -97 31h-26l-20 -84h72l-39 -160h-72l-21 -88h29q91 0 140 49q28 27 45.5 76t17.5 92q0 55 -29 84z" />
    <glyph glyph-name="Ntilde" unicode="&#xd1;" horiz-adv-x="679" 
d="M346 728l-93 22q24 77 55.5 111.5t76.5 34.5q35 0 91 -20q46 -16 59 -16q29 0 49 40l92 -21q-24 -77 -55.5 -112t-76.5 -35q-30 0 -91 21q-50 16 -59 16q-17 0 -27 -9t-21 -32zM-35 0l172 700h204l120 -315l78 315h213l-171 -700h-195l-127 330l-81 -330h-213z" />
    <glyph glyph-name="Ograve" unicode="&#xd2;" horiz-adv-x="692" 
d="M375 743l-118 103l214 45l47 -148h-143zM404 714q131 0 213 -79.5t82 -214.5q0 -88 -33.5 -179t-95.5 -153q-102 -102 -244 -102q-132 0 -214 79.5t-82 214.5q0 88 33.5 179t96.5 154q101 101 244 101zM339 177q43 0 77 34q31 31 49.5 88t18.5 106q0 57 -24.5 87.5
t-68.5 30.5q-45 0 -77 -34q-30 -30 -49 -88t-19 -107q0 -57 24 -87t69 -30z" />
    <glyph glyph-name="Oacute" unicode="&#xd3;" horiz-adv-x="692" 
d="M365 743l121 148l210 -45l-171 -103h-160zM404 714q131 0 213 -79.5t82 -214.5q0 -88 -33.5 -179t-95.5 -153q-102 -102 -244 -102q-132 0 -214 79.5t-82 214.5q0 88 33.5 179t96.5 154q101 101 244 101zM339 177q43 0 77 34q31 31 49.5 88t18.5 106q0 57 -24.5 87.5
t-68.5 30.5q-45 0 -77 -34q-30 -30 -49 -88t-19 -107q0 -57 24 -87t69 -30z" />
    <glyph glyph-name="Ocircumflex" unicode="&#xd4;" horiz-adv-x="692" 
d="M404 714q131 0 213 -79.5t82 -214.5q0 -88 -33.5 -179t-95.5 -153q-102 -102 -244 -102q-132 0 -214 79.5t-82 214.5q0 88 33.5 179t96.5 154q101 101 244 101zM339 177q43 0 77 34q31 31 49.5 88t18.5 106q0 57 -24.5 87.5t-68.5 30.5q-45 0 -77 -34q-30 -30 -49 -88
t-19 -107q0 -57 24 -87t69 -30zM256 743l137 135h174l70 -135h-118l-55 45l-78 -45h-130z" />
    <glyph glyph-name="Otilde" unicode="&#xd5;" horiz-adv-x="692" 
d="M349 737l-93 22q24 77 55.5 111.5t76.5 34.5q35 0 91 -20q46 -16 59 -16q29 0 49 40l92 -21q-24 -77 -55.5 -112t-76.5 -35q-30 0 -91 21q-50 16 -59 16q-17 0 -27 -9t-21 -32zM404 714q131 0 213 -79.5t82 -214.5q0 -88 -33.5 -179t-95.5 -153q-102 -102 -244 -102
q-132 0 -214 79.5t-82 214.5q0 88 33.5 179t96.5 154q101 101 244 101zM339 177q43 0 77 34q31 31 49.5 88t18.5 106q0 57 -24.5 87.5t-68.5 30.5q-45 0 -77 -34q-30 -30 -49 -88t-19 -107q0 -57 24 -87t69 -30z" />
    <glyph glyph-name="Odieresis" unicode="&#xd6;" horiz-adv-x="692" 
d="M272 743l34 138h165l-34 -138h-165zM472 743l34 138h166l-35 -138h-165zM404 714q131 0 213 -79.5t82 -214.5q0 -88 -33.5 -179t-95.5 -153q-102 -102 -244 -102q-132 0 -214 79.5t-82 214.5q0 88 33.5 179t96.5 154q101 101 244 101zM339 177q43 0 77 34q31 31 49.5 88
t18.5 106q0 57 -24.5 87.5t-68.5 30.5q-45 0 -77 -34q-30 -30 -49 -88t-19 -107q0 -57 24 -87t69 -30z" />
    <glyph glyph-name="multiply" unicode="&#xd7;" horiz-adv-x="574" 
d="M128 99l-105 137l162 127l-97 126l145 114l94 -128l159 130l106 -137l-162 -127l97 -126l-146 -115l-93 129z" />
    <glyph glyph-name="Oslash" unicode="&#xd8;" horiz-adv-x="692" 
d="M404 714q117 0 194 -63l54 54h123l-120 -119q44 -71 44 -166q0 -88 -33.5 -179t-95.5 -153q-102 -102 -244 -102q-119 0 -197 64l-52 -55h-123l118 121q-42 70 -42 164q0 88 33.5 179t96.5 154q101 101 244 101zM339 171q45 0 81 36q31 31 50.5 90t19.5 108q0 3 -0.5 10
t-0.5 11l-216 -231q24 -24 66 -24zM240 294v-14l213 228q-24 21 -62 21q-47 0 -81 -36q-31 -31 -50.5 -90.5t-19.5 -108.5z" />
    <glyph glyph-name="Ugrave" unicode="&#xd9;" horiz-adv-x="659" 
d="M365 734l-118 103l214 45l47 -148h-143zM293 -13q-129 0 -198 58.5t-69 162.5q0 56 15 118l90 374h218l-94 -391q-9 -36 -9 -61q0 -33 19 -51t54 -18q37 0 60 23q24 24 39 82l101 416h217l-106 -438q-32 -127 -97 -192q-81 -83 -240 -83z" />
    <glyph glyph-name="Uacute" unicode="&#xda;" horiz-adv-x="659" 
d="M361 734l121 148l210 -45l-171 -103h-160zM293 -13q-129 0 -198 58.5t-69 162.5q0 56 15 118l90 374h218l-94 -391q-9 -36 -9 -61q0 -33 19 -51t54 -18q37 0 60 23q24 24 39 82l101 416h217l-106 -438q-32 -127 -97 -192q-81 -83 -240 -83z" />
    <glyph glyph-name="Ucircumflex" unicode="&#xdb;" horiz-adv-x="659" 
d="M293 -13q-129 0 -198 58.5t-69 162.5q0 56 15 118l90 374h218l-94 -391q-9 -36 -9 -61q0 -33 19 -51t54 -18q37 0 60 23q24 24 39 82l101 416h217l-106 -438q-32 -127 -97 -192q-81 -83 -240 -83zM246 734l137 135h174l70 -135h-118l-55 45l-78 -45h-130z" />
    <glyph glyph-name="Udieresis" unicode="&#xdc;" horiz-adv-x="659" 
d="M261 734l34 138h165l-34 -138h-165zM461 734l34 138h166l-35 -138h-165zM293 -13q-129 0 -198 58.5t-69 162.5q0 56 15 118l90 374h218l-94 -391q-9 -36 -9 -61q0 -33 19 -51t54 -18q37 0 60 23q24 24 39 82l101 416h217l-106 -438q-32 -127 -97 -192q-81 -83 -240 -83z
" />
    <glyph glyph-name="Yacute" unicode="&#xdd;" horiz-adv-x="617" 
d="M126 0l63 260l-108 440h224l39 -233l152 233h246l-342 -460l-58 -240h-216zM328 734l121 148l210 -45l-171 -103h-160z" />
    <glyph glyph-name="Thorn" unicode="&#xde;" horiz-adv-x="596" 
d="M-35 0l172 700h215l-23 -94q152 -3 221 -70q54 -54 54 -140q0 -123 -76 -198q-90 -90 -251 -90h-70l-26 -108h-216zM373 419q-19 19 -58 19h-28l-40 -167h28q59 0 87 28t28 74q0 29 -17 46z" />
    <glyph glyph-name="germandbls" unicode="&#xdf;" horiz-adv-x="587" 
d="M220 -2l37 152q49 5 73.5 28t24.5 56q0 51 -63 60l27 111q44 10 66.5 38t22.5 64q0 24 -12 38.5t-32 14.5q-53 0 -73 -83l-115 -477h-210l115 473q29 122 91 185q76 74 204 74q106 0 169 -52t63 -139q0 -73 -37 -126t-110 -76q45 -17 70 -51t25 -79q0 -102 -87.5 -163.5
t-248.5 -47.5z" />
    <glyph glyph-name="agrave" unicode="&#xe0;" horiz-adv-x="539" 
d="M118 -12q-58 0 -93 37t-35 101q0 94 55 149q54 56 161 56q56 0 111 -20l2 7q4 16 4 27q0 52 -75 52q-72 0 -132 -24l-24 154q95 28 205 28q117 0 177 -44t60 -127q0 -36 -9 -75l-75 -309h-209l12 49q-35 -31 -65 -46t-70 -15zM222 112q23 0 42 20t26 53l9 41q-21 7 -43 7
q-28 0 -46 -18q-23 -23 -23 -60q0 -43 35 -43zM285 584l-121 122l202 50l44 -172h-125z" />
    <glyph glyph-name="aacute" unicode="&#xe1;" horiz-adv-x="539" 
d="M118 -12q-58 0 -93 37t-35 101q0 94 55 149q54 56 161 56q56 0 111 -20l2 7q4 16 4 27q0 52 -75 52q-72 0 -132 -24l-24 154q95 28 205 28q117 0 177 -44t60 -127q0 -36 -9 -75l-75 -309h-209l12 49q-35 -31 -65 -46t-70 -15zM222 112q23 0 42 20t26 53l9 41q-21 7 -43 7
q-28 0 -46 -18q-23 -23 -23 -60q0 -43 35 -43zM267 584l130 172l195 -50l-182 -122h-143z" />
    <glyph glyph-name="acircumflex" unicode="&#xe2;" horiz-adv-x="539" 
d="M118 -12q-58 0 -93 37t-35 101q0 94 55 149q54 56 161 56q56 0 111 -20l2 7q4 16 4 27q0 52 -75 52q-72 0 -132 -24l-24 154q95 28 205 28q117 0 177 -44t60 -127q0 -36 -9 -75l-75 -309h-209l12 49q-35 -31 -65 -46t-70 -15zM222 112q23 0 42 20t26 53l9 41q-21 7 -43 7
q-28 0 -46 -18q-23 -23 -23 -60q0 -43 35 -43zM149 584l154 154h150l77 -154h-109l-62 51l-88 -51h-122z" />
    <glyph glyph-name="atilde" unicode="&#xe3;" horiz-adv-x="539" 
d="M118 -12q-58 0 -93 37t-35 101q0 94 55 149q54 56 161 56q56 0 111 -20l2 7q4 16 4 27q0 52 -75 52q-72 0 -132 -24l-24 154q95 28 205 28q117 0 177 -44t60 -127q0 -36 -9 -75l-75 -309h-209l12 49q-35 -31 -65 -46t-70 -15zM222 112q23 0 42 20t26 53l9 41q-21 7 -43 7
q-28 0 -46 -18q-23 -23 -23 -60q0 -43 35 -43zM473 751l93 -23q-25 -76 -56 -110.5t-75 -34.5q-32 0 -85 20q-48 16 -58 16q-16 0 -25.5 -9t-21.5 -31l-93 23q25 77 56 111t75 34q32 0 85 -20q48 -16 58 -16q16 0 25.5 9t21.5 31z" />
    <glyph glyph-name="adieresis" unicode="&#xe4;" horiz-adv-x="539" 
d="M118 -12q-58 0 -93 37t-35 101q0 94 55 149q54 56 161 56q56 0 111 -20l2 7q4 16 4 27q0 52 -75 52q-72 0 -132 -24l-24 154q95 28 205 28q117 0 177 -44t60 -127q0 -36 -9 -75l-75 -309h-209l12 49q-35 -31 -65 -46t-70 -15zM222 112q23 0 42 20t26 53l9 41q-21 7 -43 7
q-28 0 -46 -18q-23 -23 -23 -60q0 -43 35 -43zM164 584l35 142h164l-35 -142h-164zM363 584l35 142h163l-35 -142h-163z" />
    <glyph glyph-name="aring" unicode="&#xe5;" horiz-adv-x="539" 
d="M118 -12q-58 0 -93 37t-35 101q0 94 55 149q54 56 161 56q56 0 111 -20l2 7q4 16 4 27q0 52 -75 52q-72 0 -132 -24l-24 154q95 28 205 28q117 0 177 -44t60 -127q0 -36 -9 -75l-75 -309h-209l12 49q-35 -31 -65 -46t-70 -15zM222 112q23 0 42 20t26 53l9 41q-21 7 -43 7
q-28 0 -46 -18q-23 -23 -23 -60q0 -43 35 -43zM507 727q0 -57 -41.5 -99t-102.5 -42q-52 0 -84.5 30.5t-32.5 78.5q0 57 41.5 98.5t102.5 41.5q52 0 84.5 -30.5t32.5 -77.5zM317 699q0 -23 14 -38t37 -15q29 0 49 22t20 55q0 22 -14 37.5t-37 15.5q-29 0 -49 -22t-20 -55z
" />
    <glyph glyph-name="ae" unicode="&#xe6;" horiz-adv-x="821" 
d="M537 -13q-128 0 -192 83q-93 -82 -198 -82q-73 0 -115 38t-42 105q0 89 55 144q54 56 161 56q56 0 111 -20l2 7q4 16 4 27q0 52 -75 52q-72 0 -132 -24l-24 154q95 28 205 28q107 0 160 -48q72 52 155 52q101 0 152 -62.5t51 -158.5q0 -58 -19 -124h-308q3 -68 77 -68
q54 0 110 38l77 -126q-89 -71 -215 -71zM229 114q39 0 76 39q-9 38 -6 73q-21 7 -43 7q-28 0 -46 -18q-22 -22 -22 -56q0 -45 41 -45zM537 383q-22 -22 -35 -66h124q5 19 5 36q0 22 -12.5 37t-33.5 15q-26 0 -48 -22z" />
    <glyph glyph-name="ccedilla" unicode="&#xe7;" horiz-adv-x="489" 
d="M182 -160l-162 62l111 107q-57 27 -89.5 80t-32.5 127q0 156 101 257q85 85 205 85q75 0 129 -36.5t77 -96.5l-147 -98q-24 53 -62 53q-30 0 -55 -25q-20 -20 -32 -53.5t-12 -65.5q0 -36 16 -54t41 -18q36 0 74 38l111 -120q-74 -89 -196 -95z" />
    <glyph glyph-name="egrave" unicode="&#xe8;" horiz-adv-x="536" 
d="M512 214h-308q3 -68 77 -68q53 0 110 38l77 -126q-89 -71 -212 -71q-115 0 -180 63t-65 171q0 69 26 137.5t75 117.5q83 83 204 83q109 0 162 -62t53 -159q0 -58 -19 -124zM285 584l-121 122l202 50l44 -172h-125zM253 383q-22 -22 -35 -66h124q5 19 5 36q0 22 -12.5 37
t-33.5 15q-26 0 -48 -22z" />
    <glyph glyph-name="eacute" unicode="&#xe9;" horiz-adv-x="536" 
d="M512 214h-308q3 -68 77 -68q53 0 110 38l77 -126q-89 -71 -212 -71q-115 0 -180 63t-65 171q0 69 26 137.5t75 117.5q83 83 204 83q109 0 162 -62t53 -159q0 -58 -19 -124zM268 584l130 172l195 -50l-182 -122h-143zM253 383q-22 -22 -35 -66h124q5 19 5 36
q0 22 -12.5 37t-33.5 15q-26 0 -48 -22z" />
    <glyph glyph-name="ecircumflex" unicode="&#xea;" horiz-adv-x="536" 
d="M512 214h-308q3 -68 77 -68q53 0 110 38l77 -126q-89 -71 -212 -71q-115 0 -180 63t-65 171q0 69 26 137.5t75 117.5q83 83 204 83q109 0 162 -62t53 -159q0 -58 -19 -124zM149 584l154 154h150l77 -154h-109l-62 51l-88 -51h-122zM253 383q-22 -22 -35 -66h124
q5 19 5 36q0 22 -12.5 37t-33.5 15q-26 0 -48 -22z" />
    <glyph glyph-name="edieresis" unicode="&#xeb;" horiz-adv-x="536" 
d="M512 214h-308q3 -68 77 -68q53 0 110 38l77 -126q-89 -71 -212 -71q-115 0 -180 63t-65 171q0 69 26 137.5t75 117.5q83 83 204 83q109 0 162 -62t53 -159q0 -58 -19 -124zM165 584l35 142h164l-35 -142h-164zM364 584l35 142h163l-35 -142h-163zM253 383
q-22 -22 -35 -66h124q5 19 5 36q0 22 -12.5 37t-33.5 15q-26 0 -48 -22z" />
    <glyph glyph-name="igrave" unicode="&#xec;" horiz-adv-x="273" 
d="M-35 0l133 546h210l-133 -546h-210zM149 576l-121 122l202 50l44 -172h-125z" />
    <glyph glyph-name="iacute" unicode="&#xed;" horiz-adv-x="273" 
d="M133 576l130 172l195 -50l-182 -122h-143zM-35 0l133 546h210l-133 -546h-210z" />
    <glyph glyph-name="icircumflex" unicode="&#xee;" horiz-adv-x="273" 
d="M15 576l154 154h150l77 -154h-109l-62 51l-88 -51h-122zM-35 0l133 546h210l-133 -546h-210z" />
    <glyph glyph-name="idieresis" unicode="&#xef;" horiz-adv-x="273" 
d="M30 576l35 142h164l-35 -142h-164zM229 576l35 142h163l-35 -142h-163zM-35 0l133 546h210l-133 -546h-210z" />
    <glyph glyph-name="eth" unicode="&#xf0;" horiz-adv-x="574" 
d="M227 572l-23 77l71 16q-27 31 -57 60h229l14 -17l89 21l22 -77l-63 -15q60 -107 60 -242q0 -89 -29 -179.5t-85 -146.5q-82 -82 -198 -82q-117 0 -180.5 66t-63.5 170q0 65 26 139t72 120q66 66 151 66q67 0 112 -45q-18 48 -47 92zM266 160q27 0 46 21q19 18 32 57.5
t13 75.5q0 34 -14.5 53t-40.5 19q-25 0 -46 -21q-18 -18 -31.5 -57.5t-13.5 -75.5q0 -34 14.5 -53t40.5 -19z" />
    <glyph glyph-name="ntilde" unicode="&#xf1;" horiz-adv-x="570" 
d="M-37 0l133 546h209l-15 -65q63 78 148 78q65 0 100 -38.5t35 -104.5q0 -37 -10 -81l-81 -335h-210l72 298q6 23 6 38q0 38 -38 38q-48 0 -66 -69l-73 -305h-210zM494 751l93 -23q-25 -76 -56 -110.5t-75 -34.5q-32 0 -85 20q-48 16 -58 16q-16 0 -25.5 -9t-21.5 -31
l-93 23q25 77 56 111t75 34q32 0 85 -20q48 -16 58 -16q16 0 25.5 9t21.5 31z" />
    <glyph glyph-name="ograve" unicode="&#xf2;" horiz-adv-x="568" 
d="M315 559q113 0 176.5 -65t63.5 -170q0 -70 -25.5 -138.5t-71.5 -114.5q-84 -84 -205 -84q-113 0 -176.5 65t-63.5 170q0 70 25.5 138.5t72.5 114.5q82 84 204 84zM266 160q27 0 46 21q19 18 32 56.5t13 76.5q0 34 -14.5 53t-40.5 19q-25 0 -46 -21q-18 -18 -31.5 -56.5
t-13.5 -76.5q0 -34 14.5 -53t40.5 -19zM299 584l-121 122l202 50l44 -172h-125z" />
    <glyph glyph-name="oacute" unicode="&#xf3;" horiz-adv-x="568" 
d="M275 584l130 172l195 -50l-182 -122h-143zM315 559q113 0 176.5 -65t63.5 -170q0 -70 -25.5 -138.5t-71.5 -114.5q-84 -84 -205 -84q-113 0 -176.5 65t-63.5 170q0 70 25.5 138.5t72.5 114.5q82 84 204 84zM266 160q27 0 46 21q19 18 32 56.5t13 76.5q0 34 -14.5 53
t-40.5 19q-25 0 -46 -21q-18 -18 -31.5 -56.5t-13.5 -76.5q0 -34 14.5 -53t40.5 -19z" />
    <glyph glyph-name="ocircumflex" unicode="&#xf4;" horiz-adv-x="568" 
d="M163 584l154 154h150l77 -154h-109l-62 51l-88 -51h-122zM315 559q113 0 176.5 -65t63.5 -170q0 -70 -25.5 -138.5t-71.5 -114.5q-84 -84 -205 -84q-113 0 -176.5 65t-63.5 170q0 70 25.5 138.5t72.5 114.5q82 84 204 84zM266 160q27 0 46 21q19 18 32 56.5t13 76.5
q0 34 -14.5 53t-40.5 19q-25 0 -46 -21q-18 -18 -31.5 -56.5t-13.5 -76.5q0 -34 14.5 -53t40.5 -19z" />
    <glyph glyph-name="otilde" unicode="&#xf5;" horiz-adv-x="568" 
d="M315 559q113 0 176.5 -65t63.5 -170q0 -70 -25.5 -138.5t-71.5 -114.5q-84 -84 -205 -84q-113 0 -176.5 65t-63.5 170q0 70 25.5 138.5t72.5 114.5q82 84 204 84zM266 160q27 0 46 21q19 18 32 56.5t13 76.5q0 34 -14.5 53t-40.5 19q-25 0 -46 -21q-18 -18 -31.5 -56.5
t-13.5 -76.5q0 -34 14.5 -53t40.5 -19zM487 751l93 -23q-25 -76 -56 -110.5t-75 -34.5q-32 0 -85 20q-48 16 -58 16q-16 0 -25.5 -9t-21.5 -31l-93 23q25 77 56 111t75 34q32 0 85 -20q48 -16 58 -16q16 0 25.5 9t21.5 31z" />
    <glyph glyph-name="odieresis" unicode="&#xf6;" horiz-adv-x="568" 
d="M179 584l35 142h164l-35 -142h-164zM378 584l35 142h163l-35 -142h-163zM315 559q113 0 176.5 -65t63.5 -170q0 -70 -25.5 -138.5t-71.5 -114.5q-84 -84 -205 -84q-113 0 -176.5 65t-63.5 170q0 70 25.5 138.5t72.5 114.5q82 84 204 84zM266 160q27 0 46 21
q19 18 32 56.5t13 76.5q0 34 -14.5 53t-40.5 19q-25 0 -46 -21q-18 -18 -31.5 -56.5t-13.5 -76.5q0 -34 14.5 -53t40.5 -19z" />
    <glyph glyph-name="divide" unicode="&#xf7;" horiz-adv-x="574" 
d="M141 58l40 164h186l-41 -164h-185zM36 269l41 166h499l-41 -166h-499zM245 482l42 164h185l-42 -164h-185z" />
    <glyph glyph-name="oslash" unicode="&#xf8;" horiz-adv-x="568" 
d="M315 559q95 0 158 -49l41 40h113l-103 -100q31 -56 31 -126t-25.5 -138.5t-71.5 -114.5q-84 -84 -205 -84q-96 0 -159 49l-40 -40h-113l103 99q-31 53 -31 127q0 70 25.5 138.5t72.5 114.5q82 84 204 84zM318 175q19 19 32.5 58t14.5 77l-140 -144q17 -14 41 -14
q31 0 52 23zM302 394q-29 0 -52 -23q-19 -19 -32.5 -58t-14.5 -78l139 144q-16 15 -40 15z" />
    <glyph glyph-name="ugrave" unicode="&#xf9;" horiz-adv-x="570" 
d="M136 -13q-65 0 -100 38.5t-35 104.5q0 38 11 81l80 335h210l-72 -298q-5 -25 -5 -38q0 -38 38 -38q48 0 65 69l74 305h209l-132 -546h-210l16 65q-63 -78 -149 -78zM299 576l-121 122l202 50l44 -172h-125z" />
    <glyph glyph-name="uacute" unicode="&#xfa;" horiz-adv-x="570" 
d="M282 576l130 172l195 -50l-182 -122h-143zM136 -13q-65 0 -100 38.5t-35 104.5q0 38 11 81l80 335h210l-72 -298q-5 -25 -5 -38q0 -38 38 -38q48 0 65 69l74 305h209l-132 -546h-210l16 65q-63 -78 -149 -78z" />
    <glyph glyph-name="ucircumflex" unicode="&#xfb;" horiz-adv-x="570" 
d="M164 576l154 154h150l77 -154h-109l-62 51l-88 -51h-122zM136 -13q-65 0 -100 38.5t-35 104.5q0 38 11 81l80 335h210l-72 -298q-5 -25 -5 -38q0 -38 38 -38q48 0 65 69l74 305h209l-132 -546h-210l16 65q-63 -78 -149 -78z" />
    <glyph glyph-name="udieresis" unicode="&#xfc;" horiz-adv-x="570" 
d="M179 576l35 142h164l-35 -142h-164zM378 576l35 142h163l-35 -142h-163zM136 -13q-65 0 -100 38.5t-35 104.5q0 38 11 81l80 335h210l-72 -298q-5 -25 -5 -38q0 -38 38 -38q48 0 65 69l74 305h209l-132 -546h-210l16 65q-63 -78 -149 -78z" />
    <glyph glyph-name="yacute" unicode="&#xfd;" horiz-adv-x="571" 
d="M125 16l-55 530h210l8 -286l139 286h217l-300 -529q-54 -94 -109 -132.5t-138 -38.5t-145 39l70 152q39 -28 74 -28q16 0 29 7zM282 576l130 172l195 -50l-182 -122h-143z" />
    <glyph glyph-name="thorn" unicode="&#xfe;" horiz-adv-x="595" 
d="M349 725l-57 -236q63 70 142 70q66 0 108.5 -50.5t42.5 -139.5q0 -84 -29.5 -175.5t-80.5 -142.5q-64 -64 -145 -64q-95 0 -141 80l-53 -217h-210l214 875h209zM279 163q29 0 51 22q20 20 32.5 58.5t12.5 71.5q0 69 -55 69q-28 0 -50 -22q-20 -20 -32.5 -58.5
t-12.5 -71.5q0 -69 54 -69z" />
    <glyph glyph-name="ydieresis" unicode="&#xff;" horiz-adv-x="571" 
d="M125 16l-55 530h210l8 -286l139 286h217l-300 -529q-54 -94 -109 -132.5t-138 -38.5t-145 39l70 152q39 -28 74 -28q16 0 29 7zM179 576l35 142h164l-35 -142h-164zM378 576l35 142h163l-35 -142h-163z" />
    <glyph glyph-name="Amacron" unicode="&#x100;" horiz-adv-x="680" 
d="M-81 0l415 704h226l70 -704h-224l-7 100h-197l-53 -100h-230zM288 260h105l-9 182zM274 750l31 120h370l-30 -120h-371z" />
    <glyph glyph-name="amacron" unicode="&#x101;" horiz-adv-x="539" 
d="M118 -12q-58 0 -93 37t-35 101q0 94 55 149q54 56 161 56q56 0 111 -20l2 7q4 16 4 27q0 52 -75 52q-72 0 -132 -24l-24 154q95 28 205 28q117 0 177 -44t60 -127q0 -36 -9 -75l-75 -309h-209l12 49q-35 -31 -65 -46t-70 -15zM222 112q23 0 42 20t26 53l9 41q-21 7 -43 7
q-28 0 -46 -18q-23 -23 -23 -60q0 -43 35 -43zM172 588l29 118h349l-29 -118h-349z" />
    <glyph glyph-name="Abreve" unicode="&#x102;" horiz-adv-x="680" 
d="M-81 0l415 704h226l70 -704h-224l-7 100h-197l-53 -100h-230zM288 260h105l-9 182zM459 741q-78 0 -116.5 34.5t-31.5 102.5h111q5 -36 59 -36q47 0 72 36h116q-53 -137 -210 -137z" />
    <glyph glyph-name="abreve" unicode="&#x103;" horiz-adv-x="539" 
d="M118 -12q-58 0 -93 37t-35 101q0 94 55 149q54 56 161 56q56 0 111 -20l2 7q4 16 4 27q0 52 -75 52q-72 0 -132 -24l-24 154q95 28 205 28q117 0 177 -44t60 -127q0 -36 -9 -75l-75 -309h-209l12 49q-35 -31 -65 -46t-70 -15zM222 112q23 0 42 20t26 53l9 41q-21 7 -43 7
q-28 0 -46 -18q-23 -23 -23 -60q0 -43 35 -43zM358 583q-79 0 -122.5 39t-41.5 116h111q4 -50 60 -50q57 0 82 50h112q-20 -74 -74 -114.5t-127 -40.5z" />
    <glyph glyph-name="Aogonek" unicode="&#x104;" horiz-adv-x="680" 
d="M627 -63l-22 -92q-31 -5 -74 -5q-135 0 -135 67q0 44 65 93h-55l-7 100h-197l-53 -100h-230l415 704h226l70 -704h-38q-25 -25 -25 -41q0 -11 13.5 -15.5t46.5 -6.5zM288 260h105l-9 182z" />
    <glyph glyph-name="aogonek" unicode="&#x105;" horiz-adv-x="539" 
d="M446 -63l-22 -92q-31 -5 -74 -5q-135 0 -135 67q0 44 65 93h-39l12 49q-35 -31 -65 -46t-70 -15q-58 0 -93 37t-35 101q0 94 55 149q54 56 161 56q56 0 111 -20l2 7q4 16 4 27q0 52 -75 52q-72 0 -132 -24l-24 154q95 28 205 28q117 0 177 -44t60 -127q0 -36 -9 -75
l-75 -309h-39q-25 -25 -25 -41q0 -11 13.5 -15.5t46.5 -6.5zM222 112q23 0 42 20t26 53l9 41q-21 7 -43 7q-28 0 -46 -18q-23 -23 -23 -60q0 -43 35 -43z" />
    <glyph glyph-name="Cacute" unicode="&#x106;" horiz-adv-x="617" 
d="M321 -14q-132 0 -212.5 80t-80.5 215q0 90 32.5 177.5t96.5 150.5q103 105 265 105q83 0 150 -41t100 -111l-166 -118q-38 71 -98 71q-51 0 -90 -39q-32 -31 -48.5 -80.5t-16.5 -94.5q0 -56 26.5 -86t66.5 -30q55 0 116 58l119 -142q-107 -115 -260 -115zM365 743
l121 148l210 -45l-171 -103h-160z" />
    <glyph glyph-name="cacute" unicode="&#x107;" horiz-adv-x="489" 
d="M255 584l130 172l195 -50l-182 -122h-143zM243 -14q-104 0 -169 62t-65 168q0 156 101 257q85 85 205 85q75 0 129 -36.5t77 -96.5l-147 -98q-24 53 -62 53q-30 0 -55 -25q-20 -20 -32 -53.5t-12 -65.5q0 -36 16 -54t41 -18q36 0 74 38l111 -120q-79 -96 -212 -96z" />
    <glyph glyph-name="Cdotaccent" unicode="&#x10a;" horiz-adv-x="617" 
d="M361 743l35 138h172l-35 -138h-172zM321 -14q-132 0 -212.5 80t-80.5 215q0 90 32.5 177.5t96.5 150.5q103 105 265 105q83 0 150 -41t100 -111l-166 -118q-38 71 -98 71q-51 0 -90 -39q-32 -31 -48.5 -80.5t-16.5 -94.5q0 -56 26.5 -86t66.5 -30q55 0 116 58l119 -142
q-107 -115 -260 -115z" />
    <glyph glyph-name="cdotaccent" unicode="&#x10b;" horiz-adv-x="489" 
d="M243 -14q-104 0 -169 62t-65 168q0 156 101 257q85 85 205 85q75 0 129 -36.5t77 -96.5l-147 -98q-24 53 -62 53q-30 0 -55 -25q-20 -20 -32 -53.5t-12 -65.5q0 -36 16 -54t41 -18q36 0 74 38l111 -120q-79 -96 -212 -96zM248 584l36 142h169l-34 -142h-171z" />
    <glyph glyph-name="Ccaron" unicode="&#x10c;" horiz-adv-x="617" 
d="M321 -14q-132 0 -212.5 80t-80.5 215q0 90 32.5 177.5t96.5 150.5q103 105 265 105q83 0 150 -41t100 -111l-166 -118q-38 71 -98 71q-51 0 -90 -39q-32 -31 -48.5 -80.5t-16.5 -94.5q0 -56 26.5 -86t66.5 -30q55 0 116 58l119 -142q-107 -115 -260 -115zM674 878
l-138 -135h-173l-70 135h117l55 -44l78 44h131z" />
    <glyph glyph-name="ccaron" unicode="&#x10d;" horiz-adv-x="489" 
d="M243 584l-77 154h109l62 -50l88 50h122l-154 -154h-150zM243 -14q-104 0 -169 62t-65 168q0 156 101 257q85 85 205 85q75 0 129 -36.5t77 -96.5l-147 -98q-24 53 -62 53q-30 0 -55 -25q-20 -20 -32 -53.5t-12 -65.5q0 -36 16 -54t41 -18q36 0 74 38l111 -120
q-79 -96 -212 -96z" />
    <glyph glyph-name="Dcaron" unicode="&#x10e;" horiz-adv-x="657" 
d="M-35 0l172 700h202q171 0 256 -83q71 -71 71 -196q0 -80 -30.5 -165t-87.5 -142q-114 -114 -326 -114h-257zM419 480q-29 29 -91 29h-24l-76 -318h26q85 0 134 47q26 26 42.5 73t16.5 89q0 52 -28 80zM636 869l-138 -135h-173l-70 135h117l55 -44l78 44h131z" />
    <glyph glyph-name="dcaron" unicode="&#x10f;" horiz-adv-x="595" 
d="M670 574l52 198h140l-1 -2l-110 -196h-81zM289 0l14 57q-65 -70 -142 -70q-67 0 -109.5 50.5t-42.5 139.5q0 84 29.5 175.5t81.5 142.5q62 64 145 64q93 0 141 -80l59 246h210l-177 -725h-209zM274 162q28 0 50 22q20 20 32.5 58.5t12.5 71.5q0 69 -54 69q-29 0 -51 -22
q-20 -20 -32.5 -58.5t-12.5 -71.5q0 -69 55 -69z" />
    <glyph glyph-name="Dcroat" unicode="&#x110;" horiz-adv-x="702" 
d="M17 271l40 162h67l66 267h197q173 0 256 -83q71 -71 71 -196q0 -80 -30.5 -165t-86.5 -142q-116 -114 -326 -114h-252l66 271h-68zM475 485q-31 31 -97 31h-26l-20 -84h72l-39 -160h-72l-21 -88h29q91 0 140 49q28 27 45.5 76t17.5 92q0 55 -29 84z" />
    <glyph glyph-name="dcroat" unicode="&#x111;" horiz-adv-x="595" 
d="M314 587l24 100h118l9 38h210l-10 -38h47l-24 -101h-47l-143 -586h-209l14 57q-65 -70 -142 -70q-67 0 -109.5 50.5t-42.5 139.5q0 84 29.5 175.5t81.5 142.5q62 64 145 64q93 0 141 -80l26 108h-118zM274 162q28 0 50 22q20 20 32.5 58.5t12.5 71.5q0 69 -54 69
q-29 0 -51 -22q-20 -20 -32.5 -58.5t-12.5 -71.5q0 -69 55 -69z" />
    <glyph glyph-name="Emacron" unicode="&#x112;" horiz-adv-x="576" 
d="M218 741l31 120h370l-30 -120h-371zM-35 0l172 700h513l-46 -184h-300l-19 -80h277l-41 -168h-277l-21 -84h305l-45 -184h-518z" />
    <glyph glyph-name="emacron" unicode="&#x113;" horiz-adv-x="536" 
d="M512 214h-308q3 -68 77 -68q53 0 110 38l77 -126q-89 -71 -212 -71q-115 0 -180 63t-65 171q0 69 26 137.5t75 117.5q83 83 204 83q109 0 162 -62t53 -159q0 -58 -19 -124zM172 588l29 118h349l-29 -118h-349zM253 383q-22 -22 -35 -66h124q5 19 5 36q0 22 -12.5 37
t-33.5 15q-26 0 -48 -22z" />
    <glyph glyph-name="Ebreve" unicode="&#x114;" horiz-adv-x="576" 
d="M403 732q-78 0 -116.5 34.5t-31.5 102.5h111q5 -36 59 -36q47 0 72 36h116q-53 -137 -210 -137zM-35 0l172 700h513l-46 -184h-300l-19 -80h277l-41 -168h-277l-21 -84h305l-45 -184h-518z" />
    <glyph glyph-name="ebreve" unicode="&#x115;" horiz-adv-x="536" 
d="M512 214h-308q3 -68 77 -68q53 0 110 38l77 -126q-89 -71 -212 -71q-115 0 -180 63t-65 171q0 69 26 137.5t75 117.5q83 83 204 83q109 0 162 -62t53 -159q0 -58 -19 -124zM358 583q-79 0 -122.5 39t-41.5 116h111q4 -50 60 -50q57 0 82 50h112q-20 -74 -74 -114.5
t-127 -40.5zM253 383q-22 -22 -35 -66h124q5 19 5 36q0 22 -12.5 37t-33.5 15q-26 0 -48 -22z" />
    <glyph glyph-name="Edotaccent" unicode="&#x116;" horiz-adv-x="576" 
d="M315 734l35 138h172l-35 -138h-172zM-35 0l172 700h513l-46 -184h-300l-19 -80h277l-41 -168h-277l-21 -84h305l-45 -184h-518z" />
    <glyph glyph-name="edotaccent" unicode="&#x117;" horiz-adv-x="536" 
d="M512 214h-308q3 -68 77 -68q53 0 110 38l77 -126q-89 -71 -212 -71q-115 0 -180 63t-65 171q0 69 26 137.5t75 117.5q83 83 204 83q109 0 162 -62t53 -159q0 -58 -19 -124zM261 584l36 142h169l-34 -142h-171zM253 383q-22 -22 -35 -66h124q5 19 5 36q0 22 -12.5 37
t-33.5 15q-26 0 -48 -22z" />
    <glyph glyph-name="Eogonek" unicode="&#x118;" horiz-adv-x="576" 
d="M-35 0l172 700h513l-46 -184h-300l-19 -80h277l-41 -168h-277l-21 -84h305l-45 -184h-45q-25 -25 -25 -41q0 -11 13.5 -15.5t46.5 -6.5l-22 -92q-31 -5 -74 -5q-135 0 -135 67q0 44 65 93h-342z" />
    <glyph glyph-name="eogonek" unicode="&#x119;" horiz-adv-x="536" 
d="M391 184l77 -126q-60 -37 -87 -63q-20 -21 -20 -35q0 -12 13 -16.5t47 -6.5l-23 -92q-30 -5 -74 -5q-134 0 -134 67q0 38 48 81q-107 4 -167 66.5t-60 166.5q0 69 26 137.5t75 117.5q83 83 204 83q109 0 162 -62t53 -159q0 -58 -19 -124h-308q3 -68 77 -68q53 0 110 38z
M253 383q-22 -22 -35 -66h124q5 19 5 36q0 22 -12.5 37t-33.5 15q-26 0 -48 -22z" />
    <glyph glyph-name="Ecaron" unicode="&#x11a;" horiz-adv-x="576" 
d="M627 869l-138 -135h-173l-70 135h117l55 -44l78 44h131zM-35 0l172 700h513l-46 -184h-300l-19 -80h277l-41 -168h-277l-21 -84h305l-45 -184h-518z" />
    <glyph glyph-name="ecaron" unicode="&#x11b;" horiz-adv-x="536" 
d="M512 214h-308q3 -68 77 -68q53 0 110 38l77 -126q-89 -71 -212 -71q-115 0 -180 63t-65 171q0 69 26 137.5t75 117.5q83 83 204 83q109 0 162 -62t53 -159q0 -58 -19 -124zM255 584l-77 154h109l62 -50l88 50h122l-154 -154h-150zM253 383q-22 -22 -35 -66h124q5 19 5 36
q0 22 -12.5 37t-33.5 15q-26 0 -48 -22z" />
    <glyph glyph-name="Gbreve" unicode="&#x11e;" horiz-adv-x="650" 
d="M458 741q-78 0 -116.5 34.5t-31.5 102.5h111q5 -36 59 -36q47 0 72 36h116q-53 -137 -210 -137zM331 -14q-131 0 -217.5 74t-86.5 214q0 87 32.5 176.5t91.5 149.5q116 114 288 114q81 0 148.5 -29.5t104.5 -72.5l-132 -149q-57 57 -132 57q-70 0 -115 -45
q-34 -33 -51.5 -87.5t-17.5 -101.5q0 -58 29.5 -88t77.5 -30q27 0 46 8l23 89h-93l36 152h294l-92 -370q-108 -61 -234 -61z" />
    <glyph glyph-name="gbreve" unicode="&#x11f;" horiz-adv-x="591" 
d="M200 -153q-140 0 -249 56l69 140q85 -46 170 -46q58 0 88 29q25 24 39 74l4 15q-64 -66 -146 -66q-70 0 -113.5 46t-43.5 128q0 73 26.5 150.5t73.5 124.5q60 60 142 60q96 0 146 -79l16 67h210l-107 -442q-30 -122 -90 -182q-75 -75 -235 -75zM279 200q31 0 50 21
q37 40 37 102q0 33 -15 51t-40 18q-28 0 -49 -21q-38 -38 -38 -104q0 -33 15 -50t40 -17zM394 583q-79 0 -122.5 39t-41.5 116h111q4 -50 60 -50q57 0 82 50h112q-20 -74 -74 -114.5t-127 -40.5z" />
    <glyph glyph-name="Gdotaccent" unicode="&#x120;" horiz-adv-x="650" 
d="M371 743l35 138h172l-35 -138h-172zM331 -14q-131 0 -217.5 74t-86.5 214q0 87 32.5 176.5t91.5 149.5q116 114 288 114q81 0 148.5 -29.5t104.5 -72.5l-132 -149q-57 57 -132 57q-70 0 -115 -45q-34 -33 -51.5 -87.5t-17.5 -101.5q0 -58 29.5 -88t77.5 -30q27 0 46 8
l23 89h-93l36 152h294l-92 -370q-108 -61 -234 -61z" />
    <glyph glyph-name="gdotaccent" unicode="&#x121;" horiz-adv-x="591" 
d="M200 -153q-140 0 -249 56l69 140q85 -46 170 -46q58 0 88 29q25 24 39 74l4 15q-64 -66 -146 -66q-70 0 -113.5 46t-43.5 128q0 73 26.5 150.5t73.5 124.5q60 60 142 60q96 0 146 -79l16 67h210l-107 -442q-30 -122 -90 -182q-75 -75 -235 -75zM279 200q31 0 50 21
q37 40 37 102q0 33 -15 51t-40 18q-28 0 -49 -21q-38 -38 -38 -104q0 -33 15 -50t40 -17zM297 584l36 142h169l-34 -142h-171z" />
    <glyph glyph-name="Gcommaaccent" unicode="&#x122;" horiz-adv-x="650" 
d="M149 -296l7 60q76 8 87 54h-69l35 138h166l-29 -118q-18 -70 -67.5 -100.5t-129.5 -33.5zM331 -14q-131 0 -217.5 74t-86.5 214q0 87 32.5 176.5t91.5 149.5q116 114 288 114q81 0 148.5 -29.5t104.5 -72.5l-132 -149q-57 57 -132 57q-70 0 -115 -45q-34 -33 -51.5 -87.5
t-17.5 -101.5q0 -58 29.5 -88t77.5 -30q27 0 46 8l23 89h-93l36 152h294l-92 -370q-108 -61 -234 -61z" />
    <glyph glyph-name="gcommaaccent" unicode="&#x123;" horiz-adv-x="591" 
d="M524 836l-7 -60q-76 -8 -87 -54h69l-35 -138h-166l29 118q18 70 67.5 100.5t129.5 33.5zM200 -153q-140 0 -249 56l69 140q85 -46 170 -46q58 0 88 29q25 24 39 74l4 15q-64 -66 -146 -66q-70 0 -113.5 46t-43.5 128q0 73 26.5 150.5t73.5 124.5q60 60 142 60
q96 0 146 -79l16 67h210l-107 -442q-30 -122 -90 -182q-75 -75 -235 -75zM279 200q31 0 50 21q37 40 37 102q0 33 -15 51t-40 18q-28 0 -49 -21q-38 -38 -38 -104q0 -33 15 -50t40 -17z" />
    <glyph glyph-name="Hbar" unicode="&#x126;" horiz-adv-x="678" 
d="M55 516l27 115h45l17 69h215l-18 -71h169l18 71h216l-17 -69h44l-27 -115h-45l-126 -516h-217l63 256h-169l-62 -256h-215l126 516h-44zM297 446h168l18 73h-168z" />
    <glyph glyph-name="hbar" unicode="&#x127;" horiz-adv-x="570" 
d="M61 586l25 101h44l10 38h210l-10 -38h120l-24 -100h-120l-26 -106q63 78 148 78q65 0 100 -38.5t35 -104.5q0 -37 -10 -81l-81 -335h-210l72 298q6 23 6 38q0 38 -38 38q-48 0 -66 -69l-73 -305h-210l143 586h-45z" />
    <glyph glyph-name="Imacron" unicode="&#x12a;" horiz-adv-x="283" 
d="M-33 0l172 700h215l-171 -700h-216zM72 741l31 120h370l-30 -120h-371z" />
    <glyph glyph-name="imacron" unicode="&#x12b;" horiz-adv-x="273" 
d="M-35 0l133 546h210l-133 -546h-210zM38 580l29 118h349l-29 -118h-349z" />
    <glyph glyph-name="Ibreve" unicode="&#x12c;" horiz-adv-x="283" 
d="M-33 0l172 700h215l-171 -700h-216zM257 732q-78 0 -116.5 34.5t-31.5 102.5h111q5 -36 59 -36q47 0 72 36h116q-53 -137 -210 -137z" />
    <glyph glyph-name="ibreve" unicode="&#x12d;" horiz-adv-x="273" 
d="M-35 0l133 546h210l-133 -546h-210zM224 575q-79 0 -122.5 39t-41.5 116h111q4 -50 60 -50q57 0 82 50h112q-20 -74 -74 -114.5t-127 -40.5z" />
    <glyph glyph-name="Iogonek" unicode="&#x12e;" horiz-adv-x="283" 
d="M-33 0l172 700h215l-171 -700h-42q-25 -25 -25 -41q0 -11 13.5 -15.5t46.5 -6.5l-22 -92q-31 -5 -74 -5q-135 0 -135 67q0 43 65 93h-43z" />
    <glyph glyph-name="iogonek" unicode="&#x12f;" horiz-adv-x="273" 
d="M-35 0l133 546h210l-133 -546h-37q-25 -25 -25 -41q0 -11 13.5 -15.5t46.5 -6.5l-22 -92q-31 -5 -74 -5q-135 0 -135 67q0 43 65 93h-42zM104 582l36 143h215l-35 -143h-216z" />
    <glyph glyph-name="Idotaccent" unicode="&#x130;" horiz-adv-x="283" 
d="M-33 0l172 700h215l-171 -700h-216zM170 734l35 138h172l-35 -138h-172z" />
    <glyph glyph-name="dotlessi" unicode="&#x131;" horiz-adv-x="273" 
d="M-35 0l133 546h210l-133 -546h-210z" />
    <glyph glyph-name="Kcommaaccent" unicode="&#x136;" horiz-adv-x="631" 
d="M114 -287l7 60q76 8 87 54h-69l35 138h166l-29 -118q-18 -70 -67.5 -100.5t-129.5 -33.5zM-35 0l172 700h215l-60 -243l193 243h253l-270 -317l109 -383h-228l-59 226l-75 -84l-34 -142h-216z" />
    <glyph glyph-name="kcommaaccent" unicode="&#x137;" horiz-adv-x="545" 
d="M59 -287l7 60q76 8 87 54h-69l35 138h166l-29 -118q-18 -70 -67.5 -100.5t-129.5 -33.5zM-37 0l177 725h210l-82 -332l124 153h234l-204 -235l73 -311h-216l-29 166l-51 -55l-26 -111h-210z" />
    <glyph glyph-name="Lacute" unicode="&#x139;" horiz-adv-x="523" 
d="M183 734l121 148l210 -45l-171 -103h-160zM-35 0l172 700h215l-124 -510h261l-48 -190h-476z" />
    <glyph glyph-name="lacute" unicode="&#x13a;" horiz-adv-x="273" 
d="M174 754l121 148l210 -45l-171 -103h-160zM-35 0l177 725h210l-177 -725h-210z" />
    <glyph glyph-name="Lcommaaccent" unicode="&#x13b;" horiz-adv-x="523" 
d="M49 -287l7 60q76 8 87 54h-69l35 138h166l-29 -118q-18 -70 -67.5 -100.5t-129.5 -33.5zM-35 0l172 700h215l-124 -510h261l-48 -190h-476z" />
    <glyph glyph-name="lcommaaccent" unicode="&#x13c;" horiz-adv-x="273" 
d="M-79 -287l7 60q76 8 87 54h-69l35 138h166l-29 -118q-18 -70 -67.5 -100.5t-129.5 -33.5zM-35 0l177 725h210l-177 -725h-210z" />
    <glyph glyph-name="Lcaron" unicode="&#x13d;" horiz-adv-x="523" 
d="M340 502l52 198h140l-1 -2l-110 -196h-81zM-35 0l172 700h215l-124 -510h261l-48 -190h-476z" />
    <glyph glyph-name="lcaron" unicode="&#x13e;" horiz-adv-x="273" 
d="M347 574l52 198h140l-1 -2l-110 -196h-81zM-35 0l177 725h210l-177 -725h-210z" />
    <glyph glyph-name="Ldot" unicode="&#x13f;" horiz-adv-x="523" 
d="M340 327l43 172h157l-43 -172h-157zM-35 0l172 700h215l-124 -510h261l-48 -190h-476z" />
    <glyph glyph-name="ldot" unicode="&#x140;" horiz-adv-x="412" 
d="M276 282l43 175h140l-43 -175h-140zM-35 0l177 725h210l-177 -725h-210z" />
    <glyph glyph-name="Lslash" unicode="&#x141;" horiz-adv-x="572" 
d="M0 198l49 195l66 21l70 286h215l-52 -213l147 47l-48 -196l-146 -46l-25 -102h261l-48 -190h-476l54 219z" />
    <glyph glyph-name="lslash" unicode="&#x142;" horiz-adv-x="379" 
d="M0 216l46 189l75 23l73 297h210l-56 -226l79 24l-47 -189l-78 -24l-75 -310h-210l58 239z" />
    <glyph glyph-name="Nacute" unicode="&#x143;" horiz-adv-x="679" 
d="M369 734l121 148l210 -45l-171 -103h-160zM-35 0l172 700h204l120 -315l78 315h213l-171 -700h-195l-127 330l-81 -330h-213z" />
    <glyph glyph-name="nacute" unicode="&#x144;" horiz-adv-x="570" 
d="M288 584l130 172l195 -50l-182 -122h-143zM-37 0l133 546h209l-15 -65q63 78 148 78q65 0 100 -38.5t35 -104.5q0 -37 -10 -81l-81 -335h-210l72 298q6 23 6 38q0 38 -38 38q-48 0 -66 -69l-73 -305h-210z" />
    <glyph glyph-name="Ncommaaccent" unicode="&#x145;" horiz-adv-x="679" 
d="M123 -287l7 60q76 8 87 54h-69l35 138h166l-29 -118q-18 -70 -67.5 -100.5t-129.5 -33.5zM-35 0l172 700h204l120 -315l78 315h213l-171 -700h-195l-127 330l-81 -330h-213z" />
    <glyph glyph-name="ncommaaccent" unicode="&#x146;" horiz-adv-x="570" 
d="M74 -287l7 60q76 8 87 54h-69l35 138h166l-29 -118q-18 -70 -67.5 -100.5t-129.5 -33.5zM-37 0l133 546h209l-15 -65q63 78 148 78q65 0 100 -38.5t35 -104.5q0 -37 -10 -81l-81 -335h-210l72 298q6 23 6 38q0 38 -38 38q-48 0 -66 -69l-73 -305h-210z" />
    <glyph glyph-name="Ncaron" unicode="&#x147;" horiz-adv-x="679" 
d="M678 869l-138 -135h-173l-70 135h117l55 -44l78 44h131zM-35 0l172 700h204l120 -315l78 315h213l-171 -700h-195l-127 330l-81 -330h-213z" />
    <glyph glyph-name="ncaron" unicode="&#x148;" horiz-adv-x="570" 
d="M275 584l-77 154h109l62 -50l88 50h122l-154 -154h-150zM-37 0l133 546h209l-15 -65q63 78 148 78q65 0 100 -38.5t35 -104.5q0 -37 -10 -81l-81 -335h-210l72 298q6 23 6 38q0 38 -38 38q-48 0 -66 -69l-73 -305h-210z" />
    <glyph glyph-name="Omacron" unicode="&#x14c;" horiz-adv-x="692" 
d="M270 750l31 120h370l-30 -120h-371zM404 714q131 0 213 -79.5t82 -214.5q0 -88 -33.5 -179t-95.5 -153q-102 -102 -244 -102q-132 0 -214 79.5t-82 214.5q0 88 33.5 179t96.5 154q101 101 244 101zM339 177q43 0 77 34q31 31 49.5 88t18.5 106q0 57 -24.5 87.5
t-68.5 30.5q-45 0 -77 -34q-30 -30 -49 -88t-19 -107q0 -57 24 -87t69 -30z" />
    <glyph glyph-name="omacron" unicode="&#x14d;" horiz-adv-x="568" 
d="M187 588l29 118h349l-29 -118h-349zM315 559q113 0 176.5 -65t63.5 -170q0 -70 -25.5 -138.5t-71.5 -114.5q-84 -84 -205 -84q-113 0 -176.5 65t-63.5 170q0 70 25.5 138.5t72.5 114.5q82 84 204 84zM266 160q27 0 46 21q19 18 32 56.5t13 76.5q0 34 -14.5 53t-40.5 19
q-25 0 -46 -21q-18 -18 -31.5 -56.5t-13.5 -76.5q0 -34 14.5 -53t40.5 -19z" />
    <glyph glyph-name="Obreve" unicode="&#x14e;" horiz-adv-x="692" 
d="M455 741q-78 0 -116.5 34.5t-31.5 102.5h111q5 -36 59 -36q47 0 72 36h116q-53 -137 -210 -137zM404 714q131 0 213 -79.5t82 -214.5q0 -88 -33.5 -179t-95.5 -153q-102 -102 -244 -102q-132 0 -214 79.5t-82 214.5q0 88 33.5 179t96.5 154q101 101 244 101zM339 177
q43 0 77 34q31 31 49.5 88t18.5 106q0 57 -24.5 87.5t-68.5 30.5q-45 0 -77 -34q-30 -30 -49 -88t-19 -107q0 -57 24 -87t69 -30z" />
    <glyph glyph-name="obreve" unicode="&#x14f;" horiz-adv-x="568" 
d="M315 559q113 0 176.5 -65t63.5 -170q0 -70 -25.5 -138.5t-71.5 -114.5q-84 -84 -205 -84q-113 0 -176.5 65t-63.5 170q0 70 25.5 138.5t72.5 114.5q82 84 204 84zM266 160q27 0 46 21q19 18 32 56.5t13 76.5q0 34 -14.5 53t-40.5 19q-25 0 -46 -21q-18 -18 -31.5 -56.5
t-13.5 -76.5q0 -34 14.5 -53t40.5 -19zM372 583q-79 0 -122.5 39t-41.5 116h111q4 -50 60 -50q57 0 82 50h112q-20 -74 -74 -114.5t-127 -40.5z" />
    <glyph glyph-name="Ohungarumlaut" unicode="&#x150;" horiz-adv-x="692" 
d="M404 714q131 0 213 -79.5t82 -214.5q0 -88 -33.5 -179t-95.5 -153q-102 -102 -244 -102q-132 0 -214 79.5t-82 214.5q0 88 33.5 179t96.5 154q101 101 244 101zM339 177q43 0 77 34q31 31 49.5 88t18.5 106q0 57 -24.5 87.5t-68.5 30.5q-45 0 -77 -34q-30 -30 -49 -88
t-19 -107q0 -57 24 -87t69 -30zM453 743l54 69l-103 -69h-137l113 148l159 -37l29 37l184 -44l-161 -104h-138z" />
    <glyph glyph-name="ohungarumlaut" unicode="&#x151;" horiz-adv-x="568" 
d="M315 559q113 0 176.5 -65t63.5 -170q0 -70 -25.5 -138.5t-71.5 -114.5q-84 -84 -205 -84q-113 0 -176.5 65t-63.5 170q0 70 25.5 138.5t72.5 114.5q82 84 204 84zM342 584l61 89l-120 -89h-128l124 172l151 -43l29 43l174 -49l-162 -123h-129zM266 160q27 0 46 21
q19 18 32 56.5t13 76.5q0 34 -14.5 53t-40.5 19q-25 0 -46 -21q-18 -18 -31.5 -56.5t-13.5 -76.5q0 -34 14.5 -53t40.5 -19z" />
    <glyph glyph-name="OE" unicode="&#x152;" horiz-adv-x="940" 
d="M356 0q-171 0 -256 83q-71 71 -71 196q0 80 30.5 165t87.5 142q114 114 326 114h540l-45 -184h-287l-19 -80h264l-41 -168h-264l-20 -84h291l-45 -184h-491zM276 220q29 -29 91 -29h23l76 318h-25q-86 0 -133 -47q-27 -26 -43 -73t-16 -89q0 -53 27 -80z" />
    <glyph glyph-name="oe" unicode="&#x153;" horiz-adv-x="866" 
d="M842 214h-308q3 -68 77 -68q54 0 110 38l77 -126q-89 -71 -213 -71q-106 0 -165 65q-75 -65 -170 -65q-111 0 -174 65t-63 170q0 70 25.5 138.5t72.5 114.5q82 84 202 84q104 0 164 -68q76 68 176 68q104 0 156 -62.5t52 -158.5q0 -58 -19 -124zM266 160q27 0 46 21
q19 18 32 56.5t13 76.5q0 34 -14.5 53t-40.5 19q-25 0 -46 -21q-18 -18 -31.5 -56.5t-13.5 -76.5q0 -34 14.5 -53t40.5 -19zM583 383q-22 -22 -35 -66h124q5 19 5 36q0 22 -12.5 37t-33.5 15q-26 0 -48 -22z" />
    <glyph glyph-name="Racute" unicode="&#x154;" horiz-adv-x="626" 
d="M331 0l-62 205q-5 0 -15 -0.5t-15 -0.5h-9l-49 -204h-216l172 700h225q170 0 240 -70q53 -52 53 -141q0 -113 -69 -182q-40 -40 -105 -63l80 -244h-230zM321 734l121 148l210 -45l-171 -103h-160zM269 363h56q56 0 84 28q26 26 26 68q0 25 -16 41q-18 18 -58 18h-54z" />
    <glyph glyph-name="racute" unicode="&#x155;" horiz-adv-x="389" 
d="M193 576l130 172l195 -50l-182 -122h-143zM-37 0l133 546h209l-24 -102q70 115 170 110l-57 -231h-17q-67 0 -106 -37t-59 -117l-39 -169h-210z" />
    <glyph glyph-name="Rcommaaccent" unicode="&#x156;" horiz-adv-x="626" 
d="M331 0l-62 205q-5 0 -15 -0.5t-15 -0.5h-9l-49 -204h-216l172 700h225q170 0 240 -70q53 -52 53 -141q0 -113 -69 -182q-40 -40 -105 -63l80 -244h-230zM93 -287l7 60q76 8 87 54h-69l35 138h166l-29 -118q-18 -70 -67.5 -100.5t-129.5 -33.5zM269 363h56q56 0 84 28
q26 26 26 68q0 25 -16 41q-18 18 -58 18h-54z" />
    <glyph glyph-name="rcommaaccent" unicode="&#x157;" horiz-adv-x="389" 
d="M-73 -287l7 60q76 8 87 54h-69l35 138h166l-29 -118q-18 -70 -67.5 -100.5t-129.5 -33.5zM-37 0l133 546h209l-24 -102q70 115 170 110l-57 -231h-17q-67 0 -106 -37t-59 -117l-39 -169h-210z" />
    <glyph glyph-name="Rcaron" unicode="&#x158;" horiz-adv-x="626" 
d="M331 0l-62 205q-5 0 -15 -0.5t-15 -0.5h-9l-49 -204h-216l172 700h225q170 0 240 -70q53 -52 53 -141q0 -113 -69 -182q-40 -40 -105 -63l80 -244h-230zM631 869l-138 -135h-173l-70 135h117l55 -44l78 44h131zM269 363h56q56 0 84 28q26 26 26 68q0 25 -16 41
q-18 18 -58 18h-54z" />
    <glyph glyph-name="rcaron" unicode="&#x159;" horiz-adv-x="389" 
d="M179 576l-77 154h109l62 -50l88 50h122l-154 -154h-150zM-37 0l133 546h209l-24 -102q70 115 170 110l-57 -231h-17q-67 0 -106 -37t-59 -117l-39 -169h-210z" />
    <glyph glyph-name="Sacute" unicode="&#x15a;" horiz-adv-x="569" 
d="M257 -13q-169 0 -294 110l111 160q100 -88 198 -88q23 0 36.5 9.5t13.5 25.5t-16 27.5t-74 39.5q-85 40 -123.5 84.5t-38.5 113.5q0 97 67 164q80 80 219 80q156 0 266 -94l-116 -155q-82 68 -165 68q-51 0 -51 -33q0 -15 16.5 -27t78.5 -42q80 -39 119.5 -83t39.5 -115
q0 -99 -68 -167q-78 -78 -219 -78zM305 743l121 148l210 -45l-171 -103h-160z" />
    <glyph glyph-name="sacute" unicode="&#x15b;" horiz-adv-x="460" 
d="M227 584l130 172l195 -50l-182 -122h-143zM205 -13q-148 0 -253 86l90 135q35 -30 81 -51t82 -21q30 0 30 20q0 12 -12 20.5t-57 29.5q-64 32 -96 67.5t-32 89.5q0 85 62 140.5t169 55.5q134 0 227 -71l-90 -135q-30 23 -69 40t-71 17t-32 -19q0 -10 11 -17t55 -28
q65 -31 98.5 -67t33.5 -95q0 -80 -57.5 -138.5t-169.5 -58.5z" />
    <glyph glyph-name="Scedilla" unicode="&#x15e;" horiz-adv-x="569" 
d="M187 -160l-162 62l106 102q-96 28 -168 93l111 160q100 -88 198 -88q23 0 36.5 9.5t13.5 25.5t-16 27.5t-74 39.5q-85 40 -123.5 84.5t-38.5 113.5q0 97 67 164q80 80 219 80q156 0 266 -94l-116 -155q-82 68 -165 68q-51 0 -51 -33q0 -15 16.5 -27t78.5 -42
q80 -39 119.5 -83t39.5 -115q0 -99 -68 -167q-75 -75 -212 -78z" />
    <glyph glyph-name="scedilla" unicode="&#x15f;" horiz-adv-x="460" 
d="M142 -160l-162 62l105 102q-77 23 -133 69l90 135q35 -30 81 -51t82 -21q30 0 30 20q0 12 -12 20.5t-57 29.5q-64 32 -96 67.5t-32 89.5q0 85 62 140.5t169 55.5q134 0 227 -71l-90 -135q-30 23 -69 40t-71 17t-32 -19q0 -10 11 -17t55 -28q65 -31 98.5 -67t33.5 -95
q0 -77 -54 -135t-159 -62z" />
    <glyph glyph-name="Scaron" unicode="&#x160;" horiz-adv-x="569" 
d="M257 -13q-169 0 -294 110l111 160q100 -88 198 -88q23 0 36.5 9.5t13.5 25.5t-16 27.5t-74 39.5q-85 40 -123.5 84.5t-38.5 113.5q0 97 67 164q80 80 219 80q156 0 266 -94l-116 -155q-82 68 -165 68q-51 0 -51 -33q0 -15 16.5 -27t78.5 -42q80 -39 119.5 -83t39.5 -115
q0 -99 -68 -167q-78 -78 -219 -78zM615 878l-138 -135h-173l-70 135h117l55 -44l78 44h131z" />
    <glyph glyph-name="scaron" unicode="&#x161;" horiz-adv-x="460" 
d="M215 584l-77 154h109l62 -50l88 50h122l-154 -154h-150zM205 -13q-148 0 -253 86l90 135q35 -30 81 -51t82 -21q30 0 30 20q0 12 -12 20.5t-57 29.5q-64 32 -96 67.5t-32 89.5q0 85 62 140.5t169 55.5q134 0 227 -71l-90 -135q-30 23 -69 40t-71 17t-32 -19q0 -10 11 -17
t55 -28q65 -31 98.5 -67t33.5 -95q0 -80 -57.5 -138.5t-169.5 -58.5z" />
    <glyph glyph-name="Tcommaaccent" unicode="&#x162;" horiz-adv-x="578" 
d="M74 -287l7 60q76 8 87 54h-69l35 138h166l-29 -118q-18 -70 -67.5 -100.5t-129.5 -33.5zM114 0l125 511h-171l47 189h557l-47 -189h-170l-125 -511h-216z" />
    <glyph glyph-name="tcommaaccent" unicode="&#x163;" horiz-adv-x="389" 
d="M6 -295l7 60q76 8 87 54h-69l35 138h166l-29 -118q-18 -70 -67.5 -100.5t-129.5 -33.5zM199 -12q-169 0 -169 132q0 26 10 68l46 195h-52l40 163h53l32 134h209l-32 -134h105l-41 -163h-105l-36 -154q-5 -23 -5 -36q0 -30 38 -30q19 0 56 10l-42 -169q-56 -16 -107 -16z
" />
    <glyph glyph-name="Tcaron" unicode="&#x164;" horiz-adv-x="578" 
d="M629 869l-138 -135h-173l-70 135h117l55 -44l78 44h131zM114 0l125 511h-171l47 189h557l-47 -189h-170l-125 -511h-216z" />
    <glyph glyph-name="tcaron" unicode="&#x165;" horiz-adv-x="389" 
d="M372 576l52 198h140l-1 -2l-110 -196h-81zM199 -12q-169 0 -169 132q0 26 10 68l46 195h-52l40 163h53l32 134h209l-32 -134h105l-41 -163h-105l-36 -154q-5 -23 -5 -36q0 -30 38 -30q19 0 56 10l-42 -169q-56 -16 -107 -16z" />
    <glyph glyph-name="Umacron" unicode="&#x16a;" horiz-adv-x="659" 
d="M260 741l31 120h370l-30 -120h-371zM293 -13q-129 0 -198 58.5t-69 162.5q0 56 15 118l90 374h218l-94 -391q-9 -36 -9 -61q0 -33 19 -51t54 -18q37 0 60 23q24 24 39 82l101 416h217l-106 -438q-32 -127 -97 -192q-81 -83 -240 -83z" />
    <glyph glyph-name="umacron" unicode="&#x16b;" horiz-adv-x="570" 
d="M136 -13q-65 0 -100 38.5t-35 104.5q0 38 11 81l80 335h210l-72 -298q-5 -25 -5 -38q0 -38 38 -38q48 0 65 69l74 305h209l-132 -546h-210l16 65q-63 -78 -149 -78zM187 580l29 118h349l-29 -118h-349z" />
    <glyph glyph-name="Ubreve" unicode="&#x16c;" horiz-adv-x="659" 
d="M442 726q-78 0 -116.5 34.5t-31.5 102.5h111q5 -36 59 -36q47 0 72 36h116q-53 -137 -210 -137zM293 -13q-129 0 -198 58.5t-69 162.5q0 56 15 118l90 374h218l-94 -391q-9 -36 -9 -61q0 -33 19 -51t54 -18q37 0 60 23q24 24 39 82l101 416h217l-106 -438
q-32 -127 -97 -192q-81 -83 -240 -83z" />
    <glyph glyph-name="ubreve" unicode="&#x16d;" horiz-adv-x="570" 
d="M136 -13q-65 0 -100 38.5t-35 104.5q0 38 11 81l80 335h210l-72 -298q-5 -25 -5 -38q0 -38 38 -38q48 0 65 69l74 305h209l-132 -546h-210l16 65q-63 -78 -149 -78zM373 575q-79 0 -122.5 39t-41.5 116h111q4 -50 60 -50q57 0 82 50h112q-20 -74 -74 -114.5t-127 -40.5z
" />
    <glyph glyph-name="Uring" unicode="&#x16e;" horiz-adv-x="659" 
d="M293 -13q-129 0 -198 58.5t-69 162.5q0 56 15 118l90 374h218l-94 -391q-9 -36 -9 -61q0 -33 19 -51t54 -18q37 0 60 23q24 24 39 82l101 416h217l-106 -438q-32 -127 -97 -192q-81 -83 -240 -83zM482 976q55 0 91.5 -31.5t36.5 -78.5q0 -59 -46 -101.5t-112 -42.5
q-55 0 -91.5 31.5t-36.5 78.5q0 59 46 101.5t112 42.5zM459 784q36 0 58 22.5t22 50.5q0 26 -17.5 41.5t-46.5 15.5q-36 0 -58 -23t-22 -51q0 -25 17.5 -40.5t46.5 -15.5z" />
    <glyph glyph-name="uring" unicode="&#x16f;" horiz-adv-x="570" 
d="M516 713q0 -57 -41.5 -99t-102.5 -42q-52 0 -84.5 30.5t-32.5 78.5q0 57 41.5 98.5t102.5 41.5q52 0 84.5 -30.5t32.5 -77.5zM326 685q0 -23 14 -38t37 -15q29 0 49 22t20 55q0 22 -14 37.5t-37 15.5q-29 0 -49 -22t-20 -55zM136 -13q-65 0 -100 38.5t-35 104.5
q0 38 11 81l80 335h210l-72 -298q-5 -25 -5 -38q0 -38 38 -38q48 0 65 69l74 305h209l-132 -546h-210l16 65q-63 -78 -149 -78z" />
    <glyph glyph-name="Uhungarumlaut" unicode="&#x170;" horiz-adv-x="659" 
d="M293 -13q-129 0 -198 58.5t-69 162.5q0 56 15 118l90 374h218l-94 -391q-9 -36 -9 -61q0 -33 19 -51t54 -18q37 0 60 23q24 24 39 82l101 416h217l-106 -438q-32 -127 -97 -192q-81 -83 -240 -83zM443 734l54 69l-103 -69h-137l113 148l159 -37l29 37l184 -44l-161 -104
h-138z" />
    <glyph glyph-name="uhungarumlaut" unicode="&#x171;" horiz-adv-x="570" 
d="M136 -13q-65 0 -100 38.5t-35 104.5q0 38 11 81l80 335h210l-72 -298q-5 -25 -5 -38q0 -38 38 -38q48 0 65 69l74 305h209l-132 -546h-210l16 65q-63 -78 -149 -78zM341 576l61 89l-120 -89h-128l124 172l151 -43l29 43l174 -49l-162 -123h-129z" />
    <glyph glyph-name="Uogonek" unicode="&#x172;" horiz-adv-x="659" 
d="M365 -63l-22 -92q-31 -5 -74 -5q-135 0 -135 67q0 43 62 91q-83 19 -126.5 73.5t-43.5 136.5q0 56 15 118l90 374h218l-94 -391q-9 -36 -9 -61q0 -33 19 -51t54 -18q37 0 60 23q24 24 39 82l101 416h217l-106 -438q-32 -127 -97 -192q-75 -76 -214 -82q-14 -18 -14 -29
t13.5 -15.5t46.5 -6.5z" />
    <glyph glyph-name="uogonek" unicode="&#x173;" horiz-adv-x="570" 
d="M136 -13q-65 0 -100 38.5t-35 104.5q0 38 11 81l80 335h210l-72 -298q-5 -25 -5 -38q0 -38 38 -38q48 0 65 69l74 305h209l-132 -546h-38q-25 -25 -25 -41q0 -11 13.5 -15.5t46.5 -6.5l-22 -92q-31 -5 -74 -5q-135 0 -135 67q0 44 65 93h-41l16 65q-63 -78 -149 -78z" />
    <glyph glyph-name="Wcircumflex" unicode="&#x174;" horiz-adv-x="957" 
d="M115 -4l-19 704h222l-5 -349l175 351h183l7 -351l162 349h227l-362 -704h-198l-16 329l-178 -329h-198zM391 734l137 135h174l70 -135h-118l-55 45l-78 -45h-130z" />
    <glyph glyph-name="wcircumflex" unicode="&#x175;" horiz-adv-x="767" 
d="M265 576l154 154h150l77 -154h-109l-62 51l-88 -51h-122zM80 -4l-11 550h198l-9 -231l110 233h165l-3 -235l104 233h204l-280 -550h-175l-6 230l-118 -230h-179z" />
    <glyph glyph-name="Ycircumflex" unicode="&#x176;" horiz-adv-x="617" 
d="M126 0l63 260l-108 440h224l39 -233l152 233h246l-342 -460l-58 -240h-216zM214 734l137 135h174l70 -135h-118l-55 45l-78 -45h-130z" />
    <glyph glyph-name="ycircumflex" unicode="&#x177;" horiz-adv-x="571" 
d="M125 16l-55 530h210l8 -286l139 286h217l-300 -529q-54 -94 -109 -132.5t-138 -38.5t-145 39l70 152q39 -28 74 -28q16 0 29 7zM164 576l154 154h150l77 -154h-109l-62 51l-88 -51h-122z" />
    <glyph glyph-name="Ydieresis" unicode="&#x178;" horiz-adv-x="617" 
d="M126 0l63 260l-108 440h224l39 -233l152 233h246l-342 -460l-58 -240h-216zM229 734l34 138h165l-34 -138h-165zM429 734l34 138h166l-35 -138h-165z" />
    <glyph glyph-name="Zacute" unicode="&#x179;" horiz-adv-x="577" 
d="M-49 0l40 160l342 356h-247l45 184h533l-39 -160l-342 -356h255l-45 -184h-542zM309 734l121 148l210 -45l-171 -103h-160z" />
    <glyph glyph-name="zacute" unicode="&#x17a;" horiz-adv-x="490" 
d="M238 576l130 172l195 -50l-182 -122h-143zM-49 0l34 138l253 241h-188l41 167h454l-34 -138l-253 -241h196l-42 -167h-461z" />
    <glyph glyph-name="Zdotaccent" unicode="&#x17b;" horiz-adv-x="577" 
d="M306 734l35 138h172l-35 -138h-172zM-49 0l40 160l342 356h-247l45 184h533l-39 -160l-342 -356h255l-45 -184h-542z" />
    <glyph glyph-name="zdotaccent" unicode="&#x17c;" horiz-adv-x="490" 
d="M-49 0l34 138l253 241h-188l41 167h454l-34 -138l-253 -241h196l-42 -167h-461zM232 576l36 142h169l-34 -142h-171z" />
    <glyph glyph-name="Zcaron" unicode="&#x17d;" horiz-adv-x="577" 
d="M618 869l-138 -135h-173l-70 135h117l55 -44l78 44h131zM-49 0l40 160l342 356h-247l45 184h533l-39 -160l-342 -356h255l-45 -184h-542z" />
    <glyph glyph-name="zcaron" unicode="&#x17e;" horiz-adv-x="490" 
d="M226 576l-77 154h109l62 -50l88 50h122l-154 -154h-150zM-49 0l34 138l253 241h-188l41 167h454l-34 -138l-253 -241h196l-42 -167h-461z" />
    <glyph glyph-name="Aringacute" unicode="&#x1fa;" horiz-adv-x="680" 
d="M-81 0l400 681q-10 22 -10 45q0 58 46.5 100t112.5 42q55 0 91 -31t36 -78t-32 -85l67 -674h-224l-7 100h-197l-53 -100h-230zM410 887l123 143l203 -47l-178 -96h-148zM444 676q36 0 58 23t22 51q0 26 -17.5 41.5t-46.5 15.5q-36 0 -58 -23t-22 -51q0 -25 17.5 -41
t46.5 -16zM288 260h105l-9 182z" />
    <glyph glyph-name="aringacute" unicode="&#x1fb;" horiz-adv-x="539" 
d="M331 863l132 150l192 -46l-180 -104h-144zM118 -12q-58 0 -93 37t-35 101q0 94 55 149q54 56 161 56q56 0 111 -20l2 7q4 16 4 27q0 52 -75 52q-72 0 -132 -24l-24 154q95 28 205 28q117 0 177 -44t60 -127q0 -36 -9 -75l-75 -309h-209l12 49q-35 -31 -65 -46t-70 -15z
M222 112q23 0 42 20t26 53l9 41q-21 7 -43 7q-28 0 -46 -18q-23 -23 -23 -60q0 -43 35 -43zM506 727q0 -57 -41.5 -99t-102.5 -42q-52 0 -84.5 30.5t-32.5 78.5q0 57 41.5 98.5t102.5 41.5q52 0 84.5 -30.5t32.5 -77.5zM316 699q0 -23 14 -38t37 -15q29 0 49 22t20 55
q0 22 -14 37.5t-37 15.5q-29 0 -49 -22t-20 -55z" />
    <glyph glyph-name="AEacute" unicode="&#x1fc;" horiz-adv-x="944" 
d="M533 734l121 148l210 -45l-171 -103h-160zM-83 0l455 700h646l-46 -184h-286l-19 -80h264l-41 -168h-264l-21 -84h292l-46 -184h-500l24 100h-169l-60 -100h-229zM305 260h109l65 266h-10z" />
    <glyph glyph-name="aeacute" unicode="&#x1fd;" horiz-adv-x="821" 
d="M537 -13q-128 0 -192 83q-93 -82 -198 -82q-73 0 -115 38t-42 105q0 89 55 144q54 56 161 56q56 0 111 -20l2 7q4 16 4 27q0 52 -75 52q-72 0 -132 -24l-24 154q95 28 205 28q107 0 160 -48q72 52 155 52q101 0 152 -62.5t51 -158.5q0 -58 -19 -124h-308q3 -68 77 -68
q54 0 110 38l77 -126q-89 -71 -215 -71zM394 576l130 172l195 -50l-182 -122h-143zM229 114q39 0 76 39q-9 38 -6 73q-21 7 -43 7q-28 0 -46 -18q-22 -22 -22 -56q0 -45 41 -45zM537 383q-22 -22 -35 -66h124q5 19 5 36q0 22 -12.5 37t-33.5 15q-26 0 -48 -22z" />
    <glyph glyph-name="Oslashacute" unicode="&#x1fe;" horiz-adv-x="692" 
d="M404 714q117 0 194 -63l54 54h123l-120 -119q44 -71 44 -166q0 -88 -33.5 -179t-95.5 -153q-102 -102 -244 -102q-119 0 -197 64l-52 -55h-123l118 121q-42 70 -42 164q0 88 33.5 179t96.5 154q101 101 244 101zM365 743l121 148l210 -45l-171 -103h-160zM339 171
q45 0 81 36q31 31 50.5 90t19.5 108q0 3 -0.5 10t-0.5 11l-216 -231q24 -24 66 -24zM240 294v-14l213 228q-24 21 -62 21q-47 0 -81 -36q-31 -31 -50.5 -90.5t-19.5 -108.5z" />
    <glyph glyph-name="oslashacute" unicode="&#x1ff;" horiz-adv-x="568" 
d="M315 559q95 0 158 -49l41 40h113l-103 -100q31 -56 31 -126t-25.5 -138.5t-71.5 -114.5q-84 -84 -205 -84q-96 0 -159 49l-40 -40h-113l103 99q-31 53 -31 127q0 70 25.5 138.5t72.5 114.5q82 84 204 84zM275 584l130 172l195 -50l-182 -122h-143zM318 175q19 19 32.5 58
t14.5 77l-140 -144q17 -14 41 -14q31 0 52 23zM302 394q-29 0 -52 -23q-19 -19 -32.5 -58t-14.5 -78l139 144q-16 15 -40 15z" />
    <glyph glyph-name="Scommaaccent" unicode="&#x218;" horiz-adv-x="569" 
d="M68 -296l7 60q76 8 87 54h-69l35 138h166l-29 -118q-18 -70 -67.5 -100.5t-129.5 -33.5zM257 -13q-169 0 -294 110l111 160q100 -88 198 -88q23 0 36.5 9.5t13.5 25.5t-16 27.5t-74 39.5q-85 40 -123.5 84.5t-38.5 113.5q0 97 67 164q80 80 219 80q156 0 266 -94
l-116 -155q-82 68 -165 68q-51 0 -51 -33q0 -15 16.5 -27t78.5 -42q80 -39 119.5 -83t39.5 -115q0 -99 -68 -167q-78 -78 -219 -78z" />
    <glyph glyph-name="scommaaccent" unicode="&#x219;" horiz-adv-x="460" 
d="M16 -292l7 60q76 8 87 54h-69l35 138h166l-29 -118q-18 -70 -67.5 -100.5t-129.5 -33.5zM205 -13q-148 0 -253 86l90 135q35 -30 81 -51t82 -21q30 0 30 20q0 12 -12 20.5t-57 29.5q-64 32 -96 67.5t-32 89.5q0 85 62 140.5t169 55.5q134 0 227 -71l-90 -135
q-30 23 -69 40t-71 17t-32 -19q0 -10 11 -17t55 -28q65 -31 98.5 -67t33.5 -95q0 -80 -57.5 -138.5t-169.5 -58.5z" />
    <glyph glyph-name="schwa" unicode="&#x259;" horiz-adv-x="536" 
d="M5 208q0 58 19 124h308q-1 33 -21.5 50.5t-55.5 17.5q-53 0 -110 -38l-77 126q89 71 212 71q115 0 180 -63t65 -171q0 -69 -26 -137.5t-75 -117.5q-83 -83 -204 -83q-109 0 -162 62t-53 159zM283 163q20 20 35 66h-124q-5 -19 -5 -36q0 -22 12.5 -37t33.5 -15q26 0 48 22
z" />
    <glyph glyph-name="circumflex" unicode="&#x2c6;" 
d="M133 576l154 154h150l77 -154h-109l-62 51l-88 -51h-122z" />
    <glyph glyph-name="caron" unicode="&#x2c7;" 
d="M249 576l-77 154h109l62 -50l88 50h122l-154 -154h-150z" />
    <glyph glyph-name="breve" unicode="&#x2d8;" 
d="M344 575q-79 0 -122.5 39t-41.5 116h111q4 -50 60 -50q57 0 82 50h112q-20 -74 -74 -114.5t-127 -40.5z" />
    <glyph glyph-name="dotaccent" unicode="&#x2d9;" 
d="M238 576l36 142h169l-34 -142h-171z" />
    <glyph glyph-name="ring" unicode="&#x2da;" 
d="M484 719q0 -57 -41.5 -99t-102.5 -42q-52 0 -84.5 30.5t-32.5 78.5q0 57 41.5 98.5t102.5 41.5q52 0 84.5 -30.5t32.5 -77.5zM294 691q0 -23 14 -38t37 -15q29 0 49 22t20 55q0 22 -14 37.5t-37 15.5q-29 0 -49 -22t-20 -55z" />
    <glyph glyph-name="ogonek" unicode="&#x2db;" 
d="M296 -63l-22 -92q-31 -5 -74 -5q-135 0 -135 67q0 49 90 111l121 -4q-40 -39 -40 -55q0 -11 13.5 -15.5t46.5 -6.5z" />
    <glyph glyph-name="tilde" unicode="&#x2dc;" 
d="M458 743l93 -23q-25 -76 -56 -110.5t-75 -34.5q-32 0 -85 20q-48 16 -58 16q-16 0 -25.5 -9t-21.5 -31l-93 23q25 77 56 111t75 34q32 0 85 -20q48 -16 58 -16q16 0 25.5 9t21.5 31z" />
    <glyph glyph-name="hungarumlaut" unicode="&#x2dd;" 
d="M301 576l61 89l-120 -89h-128l124 172l151 -43l29 43l174 -49l-162 -123h-129z" />
    <glyph glyph-name="commaaccent" unicode="&#x326;" 
d="M35 -287l7 60q76 8 87 54h-69l35 138h166l-29 -118q-18 -70 -67.5 -100.5t-129.5 -33.5z" />
    <glyph glyph-name="Wgrave" unicode="&#x1e80;" horiz-adv-x="957" 
d="M510 734l-118 103l214 45l47 -148h-143zM115 -4l-19 704h222l-5 -349l175 351h183l7 -351l162 349h227l-362 -704h-198l-16 329l-178 -329h-198z" />
    <glyph glyph-name="wgrave" unicode="&#x1e81;" horiz-adv-x="767" 
d="M80 -4l-11 550h198l-9 -231l110 233h165l-3 -235l104 233h204l-280 -550h-175l-6 230l-118 -230h-179zM399 576l-121 122l202 50l44 -172h-125z" />
    <glyph glyph-name="Wacute" unicode="&#x1e82;" horiz-adv-x="957" 
d="M507 734l121 148l210 -45l-171 -103h-160zM115 -4l-19 704h222l-5 -349l175 351h183l7 -351l162 349h227l-362 -704h-198l-16 329l-178 -329h-198z" />
    <glyph glyph-name="wacute" unicode="&#x1e83;" horiz-adv-x="767" 
d="M383 576l130 172l195 -50l-182 -122h-143zM80 -4l-11 550h198l-9 -231l110 233h165l-3 -235l104 233h204l-280 -550h-175l-6 230l-118 -230h-179z" />
    <glyph glyph-name="Wdieresis" unicode="&#x1e84;" horiz-adv-x="957" 
d="M407 734l34 138h165l-34 -138h-165zM607 734l34 138h166l-35 -138h-165zM115 -4l-19 704h222l-5 -349l175 351h183l7 -351l162 349h227l-362 -704h-198l-16 329l-178 -329h-198z" />
    <glyph glyph-name="wdieresis" unicode="&#x1e85;" horiz-adv-x="767" 
d="M280 576l35 142h164l-35 -142h-164zM479 576l35 142h163l-35 -142h-163zM80 -4l-11 550h198l-9 -231l110 233h165l-3 -235l104 233h204l-280 -550h-175l-6 230l-118 -230h-179z" />
    <glyph glyph-name="Ygrave" unicode="&#x1ef2;" horiz-adv-x="617" 
d="M126 0l63 260l-108 440h224l39 -233l152 233h246l-342 -460l-58 -240h-216zM333 734l-118 103l214 45l47 -148h-143z" />
    <glyph glyph-name="ygrave" unicode="&#x1ef3;" horiz-adv-x="571" 
d="M125 16l-55 530h210l8 -286l139 286h217l-300 -529q-54 -94 -109 -132.5t-138 -38.5t-145 39l70 152q39 -28 74 -28q16 0 29 7zM299 576l-121 122l202 50l44 -172h-125z" />
    <glyph glyph-name="enspace" unicode="&#x2002;" 
 />
    <glyph glyph-name="emspace" unicode="&#x2003;" horiz-adv-x="1000" 
 />
    <glyph glyph-name="threeperemspace" unicode="&#x2004;" horiz-adv-x="333" 
 />
    <glyph glyph-name="fourperemspace" unicode="&#x2005;" horiz-adv-x="250" 
 />
    <glyph glyph-name="thinspace" unicode="&#x2009;" horiz-adv-x="133" 
 />
    <glyph glyph-name="hairspace" unicode="&#x200a;" horiz-adv-x="75" 
 />
    <glyph glyph-name="endash" unicode="&#x2013;" horiz-adv-x="494" 
d="M18 228l43 174h435l-42 -174h-436z" />
    <glyph glyph-name="emdash" unicode="&#x2014;" horiz-adv-x="818" 
d="M18 228l43 174h760l-43 -174h-760z" />
    <glyph glyph-name="quoteleft" unicode="&#x2018;" horiz-adv-x="261" 
d="M34 332l47 190q22 91 80 134.5t170 50.5l5 -78q-105 -13 -124 -82h91l-53 -215h-216z" />
    <glyph glyph-name="quoteright" unicode="&#x2019;" horiz-adv-x="261" 
d="M46 325l-5 78q104 13 124 82h-91l54 215h215l-47 -190q-22 -91 -79.5 -135t-170.5 -50z" />
    <glyph glyph-name="quotesinglbase" unicode="&#x201a;" horiz-adv-x="261" 
d="M-72 -160l-5 78q104 13 124 82h-91l53 215h216l-47 -190q-22 -91 -79.5 -135t-170.5 -50z" />
    <glyph glyph-name="quotedblleft" unicode="&#x201c;" horiz-adv-x="508" 
d="M35 331l47 190q22 91 78 134.5t166 50.5l5 -78q-98 -13 -118 -82h85l-53 -215h-210zM288 331l47 190q22 91 78 134.5t166 50.5l5 -78q-98 -13 -118 -82h85l-53 -215h-210z" />
    <glyph glyph-name="quotedblright" unicode="&#x201d;" horiz-adv-x="508" 
d="M46 325l-5 78q98 13 118 82h-85l54 215h209l-47 -190q-22 -91 -78 -134.5t-166 -50.5zM299 325l-5 78q100 13 118 82h-85l54 215h209l-46 -190q-23 -91 -79 -134.5t-166 -50.5z" />
    <glyph glyph-name="quotedblbase" unicode="&#x201e;" horiz-adv-x="508" 
d="M-72 -160l-5 78q98 13 118 82h-85l53 215h210l-47 -190q-23 -90 -78.5 -134t-165.5 -51zM181 -160l-5 78q98 13 118 82h-85l54 215h209l-47 -190q-22 -90 -78 -134t-166 -51z" />
    <glyph glyph-name="dagger" unicode="&#x2020;" horiz-adv-x="369" 
d="M114 218l76 264l-117 -13l30 121l109 -13l12 123h129l-49 -123l116 13l-29 -121l-111 13l-53 -264h-113z" />
    <glyph glyph-name="daggerdbl" unicode="&#x2021;" horiz-adv-x="386" 
d="M62 0l48 123l-115 -13l29 121l112 -13l14 132l51 132l-120 -13l30 121l110 -13l12 123h128l-48 -123l115 13l-30 -121l-111 13l-15 -132l-50 -132l120 13l-30 -121l-110 13l-12 -123h-128z" />
    <glyph glyph-name="bullet" unicode="&#x2022;" horiz-adv-x="461" 
d="M276 544q65 0 102.5 -39t37.5 -106q0 -50 -19 -101.5t-52 -85.5q-53 -51 -121 -51q-64 0 -101.5 39t-37.5 106q0 50 19 102t52 85q51 51 120 51z" />
    <glyph glyph-name="ellipsis" unicode="&#x2026;" horiz-adv-x="777" 
d="M-44 0l53 214h214l-53 -214h-214zM215 0l52 214h215l-53 -214h-214zM473 0l53 214h214l-52 -214h-215z" />
    <glyph glyph-name="perthousand" unicode="&#x2030;" horiz-adv-x="1226" 
d="M63 0l343 379l280 321h133l-343 -379l-281 -321h-132zM218 310q-72 0 -112 44t-40 117q0 51 18 102t53 86q51 51 125 51q72 0 112 -44t40 -117q0 -51 -18 -102t-53 -86q-51 -51 -125 -51zM226 421q18 0 32 14q35 35 35 110q0 53 -39 53q-18 0 -32 -14q-35 -35 -35 -110
q0 -53 39 -53zM620 -10q-72 0 -112 44t-40 117q0 51 18 102t53 86q51 51 125 51q72 0 112 -44t40 -117q0 -51 -18 -102t-53 -86q-51 -51 -125 -51zM628 101q18 0 32 14q35 35 35 110q0 53 -39 53q-18 0 -32 -14q-35 -35 -35 -110q0 -53 39 -53zM1004 -10q-72 0 -112 44
t-40 117q0 51 18 102t53 86q51 51 125 51q72 0 112 -44t40 -117q0 -51 -18 -102t-53 -86q-51 -51 -125 -51zM1012 101q18 0 32 14q35 35 35 110q0 53 -39 53q-18 0 -32 -14q-35 -35 -35 -110q0 -53 39 -53z" />
    <glyph glyph-name="guilsinglleft" unicode="&#x2039;" horiz-adv-x="306" 
d="M112 30l-103 211l18 71l195 199l102 -83l-134 -169l55 -173z" />
    <glyph glyph-name="guilsinglright" unicode="&#x203a;" horiz-adv-x="306" 
d="M193 508l103 -211l-18 -71l-195 -199l-102 83l134 169l-55 173z" />
    <glyph glyph-name="Euro" unicode="&#x20ac;" horiz-adv-x="564" 
d="M44 370l26 109h53q33 90 90 145q88 90 220 90t214 -110l-131 -127q-40 52 -94 52q-41 0 -74 -31q-11 -11 -18 -22h134l-26 -105h-144l-8 -38h143l-25 -106h-126q13 -57 75 -57q48 0 96 39l86 -151q-92 -72 -200 -72q-109 0 -179 64t-77 174h-71l27 110h53l8 36h-52z" />
    <glyph glyph-name="published" unicode="&#x2117;" horiz-adv-x="722" 
d="M293 553h123q155 0 155 -120q0 -75 -51 -120.5t-136 -45.5h-39l-26 -110h-121zM451 419q0 35 -39 35h-22l-23 -95h20q29 0 46.5 16.5t17.5 43.5zM423 715q126 0 202.5 -82.5t76.5 -216.5q0 -90 -31.5 -179t-95.5 -152q-100 -100 -239 -100q-126 0 -202.5 82.5
t-76.5 216.5q0 90 31.5 179t95.5 152q100 100 239 100zM339 24q121 0 206 85q58 58 87.5 140t29.5 165q0 118 -64 190t-177 72q-122 0 -207 -85q-58 -57 -87 -139.5t-29 -165.5q0 -118 64 -190t177 -72z" />
    <glyph glyph-name="servicemark" unicode="&#x2120;" horiz-adv-x="615" 
d="M188 385q-80 0 -138 53l51 69q49 -42 88 -42q22 0 22 15q0 7 -7.5 13t-33.5 17q-38 18 -55 37.5t-17 49.5q0 45 30 73q36 36 97 36q67 0 119 -45l-52 -68q-38 32 -74 32q-21 0 -21 -14q0 -7 7 -12t34 -19q36 -18 54 -37t18 -50q0 -42 -30 -74q-36 -34 -92 -34zM314 390
l75 310h93l31 -102l82 102h101l-75 -310h-95l37 151l-85 -102h-1l-33 102l-37 -151h-93z" />
    <glyph glyph-name="trademark" unicode="&#x2122;" horiz-adv-x="611" 
d="M108 390l54 224h-77l21 86h250l-21 -86h-77l-55 -224h-95zM308 390l75 310h94l32 -102l82 102h102l-76 -310h-95l37 150l-85 -101h-1l-35 101l-37 -150h-93z" />
    <glyph glyph-name="minus" unicode="&#x2212;" horiz-adv-x="574" 
d="M34 261l46 182h497l-45 -182h-498z" />
    <glyph glyph-name="Q.alt" horiz-adv-x="693" 
d="M404 714q131 0 213 -79.5t82 -214.5q0 -76 -26.5 -156t-75.5 -141l47 -78l-146 -82l-31 56q-71 -33 -141 -33q-132 0 -214 79.5t-82 214.5q0 88 33.5 179t96.5 154q101 101 244 101zM336 171q12 0 26 3l-56 88l146 82l18 -31q14 48 14 90q0 58 -24 89t-68 31
q-47 0 -79 -34q-31 -31 -50 -90t-19 -109q0 -119 92 -119z" />
    <glyph glyph-name="a.alt" horiz-adv-x="595" 
d="M161 -13q-67 0 -109.5 50.5t-42.5 139.5q0 84 29.5 175.5t81.5 142.5q62 64 145 64q93 0 141 -80l16 67h210l-133 -546h-210l14 57q-65 -70 -142 -70zM274 162q28 0 50 22q20 20 32.5 58.5t12.5 71.5q0 69 -54 69q-29 0 -51 -22q-20 -20 -32.5 -58.5t-12.5 -71.5
q0 -69 55 -69z" />
    <glyph glyph-name="aacute.alt" horiz-adv-x="595" 
d="M303 584l130 172l195 -50l-182 -122h-143zM161 -13q-67 0 -109.5 50.5t-42.5 139.5q0 84 29.5 175.5t81.5 142.5q62 64 145 64q93 0 141 -80l16 67h210l-133 -546h-210l14 57q-65 -70 -142 -70zM274 162q28 0 50 22q20 20 32.5 58.5t12.5 71.5q0 69 -54 69q-29 0 -51 -22
q-20 -20 -32.5 -58.5t-12.5 -71.5q0 -69 55 -69z" />
    <glyph glyph-name="abreve.alt" horiz-adv-x="595" 
d="M161 -13q-67 0 -109.5 50.5t-42.5 139.5q0 84 29.5 175.5t81.5 142.5q62 64 145 64q93 0 141 -80l16 67h210l-133 -546h-210l14 57q-65 -70 -142 -70zM274 162q28 0 50 22q20 20 32.5 58.5t12.5 71.5q0 69 -54 69q-29 0 -51 -22q-20 -20 -32.5 -58.5t-12.5 -71.5
q0 -69 55 -69zM394 583q-79 0 -122.5 39t-41.5 116h111q4 -50 60 -50q57 0 82 50h112q-20 -74 -74 -114.5t-127 -40.5z" />
    <glyph glyph-name="acircumflex.alt" horiz-adv-x="595" 
d="M185 584l154 154h150l77 -154h-109l-62 51l-88 -51h-122zM161 -13q-67 0 -109.5 50.5t-42.5 139.5q0 84 29.5 175.5t81.5 142.5q62 64 145 64q93 0 141 -80l16 67h210l-133 -546h-210l14 57q-65 -70 -142 -70zM274 162q28 0 50 22q20 20 32.5 58.5t12.5 71.5q0 69 -54 69
q-29 0 -51 -22q-20 -20 -32.5 -58.5t-12.5 -71.5q0 -69 55 -69z" />
    <glyph glyph-name="adieresis.alt" horiz-adv-x="595" 
d="M200 584l35 142h164l-35 -142h-164zM399 584l35 142h163l-35 -142h-163zM161 -13q-67 0 -109.5 50.5t-42.5 139.5q0 84 29.5 175.5t81.5 142.5q62 64 145 64q93 0 141 -80l16 67h210l-133 -546h-210l14 57q-65 -70 -142 -70zM274 162q28 0 50 22q20 20 32.5 58.5
t12.5 71.5q0 69 -54 69q-29 0 -51 -22q-20 -20 -32.5 -58.5t-12.5 -71.5q0 -69 55 -69z" />
    <glyph glyph-name="agrave.alt" horiz-adv-x="595" 
d="M161 -13q-67 0 -109.5 50.5t-42.5 139.5q0 84 29.5 175.5t81.5 142.5q62 64 145 64q93 0 141 -80l16 67h210l-133 -546h-210l14 57q-65 -70 -142 -70zM274 162q28 0 50 22q20 20 32.5 58.5t12.5 71.5q0 69 -54 69q-29 0 -51 -22q-20 -20 -32.5 -58.5t-12.5 -71.5
q0 -69 55 -69zM320 584l-121 122l202 50l44 -172h-125z" />
    <glyph glyph-name="amacron.alt" horiz-adv-x="595" 
d="M161 -13q-67 0 -109.5 50.5t-42.5 139.5q0 84 29.5 175.5t81.5 142.5q62 64 145 64q93 0 141 -80l16 67h210l-133 -546h-210l14 57q-65 -70 -142 -70zM274 162q28 0 50 22q20 20 32.5 58.5t12.5 71.5q0 69 -54 69q-29 0 -51 -22q-20 -20 -32.5 -58.5t-12.5 -71.5
q0 -69 55 -69zM208 588l29 118h349l-29 -118h-349z" />
    <glyph glyph-name="aogonek.alt" horiz-adv-x="595" 
d="M496 -63l-22 -92q-31 -5 -74 -5q-135 0 -135 67q0 44 65 93h-41l14 57q-65 -70 -142 -70q-67 0 -109.5 50.5t-42.5 139.5q0 84 29.5 175.5t81.5 142.5q62 64 145 64q93 0 141 -80l16 67h210l-133 -546h-38q-25 -25 -25 -41q0 -11 13.5 -15.5t46.5 -6.5zM274 162
q28 0 50 22q20 20 32.5 58.5t12.5 71.5q0 69 -54 69q-29 0 -51 -22q-20 -20 -32.5 -58.5t-12.5 -71.5q0 -69 55 -69z" />
    <glyph glyph-name="aring.alt" horiz-adv-x="595" 
d="M543 727q0 -57 -41.5 -99t-102.5 -42q-52 0 -84.5 30.5t-32.5 78.5q0 57 41.5 98.5t102.5 41.5q52 0 84.5 -30.5t32.5 -77.5zM353 699q0 -23 14 -38t37 -15q29 0 49 22t20 55q0 22 -14 37.5t-37 15.5q-29 0 -49 -22t-20 -55zM161 -13q-67 0 -109.5 50.5t-42.5 139.5
q0 84 29.5 175.5t81.5 142.5q62 64 145 64q93 0 141 -80l16 67h210l-133 -546h-210l14 57q-65 -70 -142 -70zM274 162q28 0 50 22q20 20 32.5 58.5t12.5 71.5q0 69 -54 69q-29 0 -51 -22q-20 -20 -32.5 -58.5t-12.5 -71.5q0 -69 55 -69z" />
    <glyph glyph-name="aring.alt2" horiz-adv-x="539" 
d="M241 0l12 49q-35 -31 -65 -46t-70 -15q-58 0 -93 37t-35 101q0 94 55 149q54 56 161 56q56 0 111 -20l2 7q4 16 4 27q0 52 -75 52q-72 0 -132 -24l-24 154q71 20 152 26q-15 23 -15 54q0 54 42 95.5t102 41.5q53 0 85.5 -30t32.5 -79q0 -67 -54 -104q97 -41 97 -147
q0 -36 -9 -75l-75 -309h-209zM351 555q29 0 49 22t20 55q0 23 -14 38t-37 15q-29 0 -49 -22t-20 -55q0 -23 14.5 -38t36.5 -15zM222 112q23 0 42 20t26 53l9 41q-21 7 -43 7q-28 0 -46 -18q-23 -23 -23 -60q0 -43 35 -43z" />
    <glyph glyph-name="aringacute.alt" horiz-adv-x="595" 
d="M368 863l132 150l192 -46l-180 -104h-144zM543 727q0 -57 -41.5 -99t-102.5 -42q-52 0 -84.5 30.5t-32.5 78.5q0 57 41.5 98.5t102.5 41.5q52 0 84.5 -30.5t32.5 -77.5zM353 699q0 -23 14 -38t37 -15q29 0 49 22t20 55q0 22 -14 37.5t-37 15.5q-29 0 -49 -22t-20 -55z
M161 -13q-67 0 -109.5 50.5t-42.5 139.5q0 84 29.5 175.5t81.5 142.5q62 64 145 64q93 0 141 -80l16 67h210l-133 -546h-210l14 57q-65 -70 -142 -70zM274 162q28 0 50 22q20 20 32.5 58.5t12.5 71.5q0 69 -54 69q-29 0 -51 -22q-20 -20 -32.5 -58.5t-12.5 -71.5
q0 -69 55 -69z" />
    <glyph glyph-name="aringacute.alt2" horiz-adv-x="539" 
d="M315 771l132 150l191 -45l-179 -105h-144zM241 0l12 49q-35 -31 -65 -46t-70 -15q-58 0 -93 37t-35 101q0 94 55 149q54 56 161 56q56 0 111 -20l2 7q4 16 4 27q0 52 -75 52q-72 0 -132 -24l-24 154q71 20 152 26q-15 23 -15 54q0 54 42 95.5t102 41.5q53 0 85.5 -30
t32.5 -79q0 -67 -54 -104q97 -41 97 -147q0 -36 -9 -75l-75 -309h-209zM351 555q29 0 49 22t20 55q0 23 -14 38t-37 15q-29 0 -49 -22t-20 -55q0 -23 14.5 -38t36.5 -15zM222 112q23 0 42 20t26 53l9 41q-21 7 -43 7q-28 0 -46 -18q-23 -23 -23 -60q0 -43 35 -43z" />
    <glyph glyph-name="atilde.alt" horiz-adv-x="595" 
d="M161 -13q-67 0 -109.5 50.5t-42.5 139.5q0 84 29.5 175.5t81.5 142.5q62 64 145 64q93 0 141 -80l16 67h210l-133 -546h-210l14 57q-65 -70 -142 -70zM274 162q28 0 50 22q20 20 32.5 58.5t12.5 71.5q0 69 -54 69q-29 0 -51 -22q-20 -20 -32.5 -58.5t-12.5 -71.5
q0 -69 55 -69zM508 751l93 -23q-25 -76 -56 -110.5t-75 -34.5q-32 0 -85 20q-48 16 -58 16q-16 0 -25.5 -9t-21.5 -31l-93 23q25 77 56 111t75 34q32 0 85 -20q48 -16 58 -16q16 0 25.5 9t21.5 31z" />
    <glyph glyph-name="three.alt" horiz-adv-x="546" 
d="M228 -14q-163 0 -262 104l116 144q65 -66 140 -66q36 0 56.5 16.5t20.5 41.5q0 46 -79 49h-46l39 158h40q102 0 102 56q0 19 -15 31t-40 12q-62 0 -133 -48l-82 148q112 82 252 82q108 0 171 -51.5t63 -126.5q0 -142 -161 -188q102 -41 102 -142q0 -98 -80 -159t-204 -61
z" />
    <glyph glyph-name="registered.alt" horiz-adv-x="722" 
d="M423 715q126 0 202.5 -82.5t76.5 -216.5q0 -90 -31.5 -179t-95.5 -152q-100 -100 -239 -100q-126 0 -202.5 82.5t-76.5 216.5q0 90 31.5 179t95.5 152q100 100 239 100zM339 24q121 0 206 85q58 58 87.5 140t29.5 165q0 118 -64 190t-177 72q-122 0 -207 -85
q-58 -57 -87 -139.5t-29 -165.5q0 -118 64 -190t177 -72zM331 276l-27 -116h-122l97 397h130q92 0 132 -40q30 -30 30 -82q0 -59 -39 -98q-22 -22 -61 -37l46 -140h-130l-35 116h-21zM353 365h29q34 0 51 17q15 15 15 38q0 15 -8 23q-11 11 -36 11h-30z" />
    <glyph glyph-name="NUL" horiz-adv-x="0" 
 />
    <glyph glyph-name="hfjslug" horiz-adv-x="694" 
d="M255 276h8l11 34h1l11 -34h8l14 47h-8l-10 -35h-1l-11 35h-7l-11 -35h-1l-10 35h-8zM321 388q19 0 29 24h1l12 -24l12 6l-17 32q6 14 13 39l-13 3q-4 -18 -8 -30h-1l-16 31q23 21 23 42q0 31 -27 31q-12 0 -20 -9t-8 -22t14 -39q-23 -18 -23 -47q0 -16 8 -26.5t21 -10.5z
M50 -200v303q14 0 23 9.5t9 22.5t-9.5 22.5t-22.5 9.5v554h100l30 79h334l29 -79h101v-921h-208l-8 14h-163l-8 -14h-207zM523 277h8v12l8 8l15 -20h10l-20 26l18 20h-10l-20 -24h-1v24h-8v-46zM193 277h34v7h-26v13h23v7h-23v12h26v7h-34v-46zM184 391h15v79h47v-79h15v172
h-15v-79h-47v79h-15v-172zM132 277h8v32l25 -32h7v46h-8v-32l-25 32h-7v-46zM400 391h15v78h38v14h-38v66h43v14h-58v-172zM468 277h8v15h12l10 -15h9l-12 17q10 4 10 14q0 15 -17 15h-20v-46zM366 277h8v17l18 29h-9l-13 -22l-13 22h-9l18 -29v-17zM481 390q31 0 31 36v137
h-16v-137q0 -22 -16 -22q-8 0 -20 5v-15q10 -4 21 -4zM476 299v17h11q10 0 10 -8q0 -9 -10 -9h-11zM322 402q-16 0 -16 25q0 19 16 35l20 -39q-8 -21 -20 -21zM327 479q-12 22 -12 32q0 19 14 19q13 0 13 -19q0 -15 -15 -32zM426 283q-16 0 -16 17q0 6 4.5 11.5t11.5 5.5
t11.5 -5.5t4.5 -11.5q0 -17 -16 -17zM426 276q10 0 17 7t7 17q0 9 -7 16.5t-17 7.5t-17 -7.5t-7 -16.5q0 -10 7 -17t17 -7z" />
    <glyph glyph-name="i.dot" horiz-adv-x="273" 
d="M-35 0l133 546h210l-133 -546h-210zM104 582l36 143h215l-35 -143h-216z" />
    <glyph glyph-name="caron.alt" 
d="M263 574l52 198h140l-1 -2l-110 -196h-81z" />
    <glyph glyph-name="acute.cap" 
d="M231 734l121 148l210 -45l-171 -103h-160z" />
    <glyph glyph-name="hungarumlaut.cap" 
d="M337 734l54 69l-103 -69h-137l113 148l159 -37l29 37l184 -44l-161 -104h-138z" />
    <glyph glyph-name="grave.cap" 
d="M343 734l-118 103l214 45l47 -148h-143z" />
    <glyph glyph-name="circumflex.cap" 
d="M175 734l137 135h174l70 -135h-118l-55 45l-78 -45h-130z" />
    <glyph glyph-name="caron.cap" 
d="M590 869l-138 -135h-173l-70 135h117l55 -44l78 44h131z" />
    <glyph glyph-name="breve.cap" 
d="M368 732q-78 0 -116.5 34.5t-31.5 102.5h111q5 -36 59 -36q47 0 72 36h116q-53 -137 -210 -137z" />
    <glyph glyph-name="tilde.cap" 
d="M263 728l-93 22q24 77 55.5 111.5t76.5 34.5q35 0 91 -20q46 -16 59 -16q29 0 49 40l92 -21q-24 -77 -55.5 -112t-76.5 -35q-30 0 -91 21q-50 16 -59 16q-17 0 -27 -9t-21 -32z" />
    <glyph glyph-name="macron.cap" 
d="M182 741l31 120h370l-30 -120h-371z" />
    <glyph glyph-name="dieresis.cap" 
d="M183 734l34 138h165l-34 -138h-165zM383 734l34 138h166l-35 -138h-165z" />
    <glyph glyph-name="dotaccent.cap" 
d="M279 734l35 138h172l-35 -138h-172z" />
    <glyph glyph-name="ring.cap" 
d="M413 990q55 0 91.5 -31.5t36.5 -78.5q0 -59 -46 -101.5t-112 -42.5q-55 0 -91.5 31.5t-36.5 78.5q0 59 46 101.5t112 42.5zM390 798q36 0 58 22.5t22 50.5q0 26 -17.5 41.5t-46.5 15.5q-36 0 -58 -23t-22 -51q0 -25 17.5 -40.5t46.5 -15.5z" />
    </font>
</defs>
</svg>
